# by GGBotNet
# File Created: 07.01.2025

mtllib old-book.mtl

#
# object Old_Bible
#

v  -1.175000 -0.375000 -0.649273
v  1.175000 -0.375000 -0.649273
v  1.175000 -0.375000 0.725000
v  -1.175000 -0.375000 0.725000
v  1.175000 0.375000 0.725000
v  1.175000 0.375000 -0.649273
v  -1.175000 0.375000 -0.649273
v  -1.175000 0.375000 0.725000
v  1.175000 -0.325000 0.725000
v  -1.175000 -0.325000 0.725000
v  1.175000 -0.325000 -0.611773
v  1.175000 0.325000 -0.611773
v  1.175000 0.000000 -0.675000
v  1.175000 0.000000 -0.725000
v  -1.175000 0.000000 -0.725000
v  -1.175000 0.325000 0.725000
v  1.175000 0.325000 0.725000
v  -1.175000 0.325000 -0.611773
v  -1.175000 -0.325000 -0.611773
v  -1.175000 0.000000 -0.675000
v  1.125000 0.325000 0.675000
v  -1.125000 0.325000 0.675000
v  -1.125000 0.000000 0.625000
v  1.125000 0.000000 0.625000
v  -1.125000 0.325000 -0.611773
v  -1.125000 0.000000 -0.675000
v  -1.125000 -0.325000 0.675000
v  1.125000 -0.325000 0.675000
v  -1.125000 -0.325000 -0.611773
v  1.125000 0.000000 -0.675000
v  1.125000 0.325000 -0.611773
v  1.125000 -0.325000 -0.611773
# 32 vertices

vn 0.000000 -1.000000 -0.000000
vn 0.000000 1.000000 -0.000000
vn 0.000000 0.000000 1.000000
vn 1.000000 0.000000 -0.000000
vn 0.000000 0.197943 -0.980214
vn 0.000000 0.197943 -0.980213
vn 0.000000 -0.000000 -1.000000
vn 0.000000 -0.197944 -0.980213
vn -1.000000 0.000000 -0.000000
vn 0.000000 -0.152057 0.988372
vn 0.000000 -0.000000 1.000000
vn 0.000000 0.152057 0.988372
vn -0.000000 1.000000 0.000000
vn 0.000000 0.190965 0.981597
vn 0.000000 -0.190964 0.981597
# 15 vertex normals

vt 0.732554 0.506392 0.000000
vt 0.732551 0.991894 0.000000
vt 0.300029 0.991893 0.000000
vt 0.300031 0.506391 0.000000
vt 0.732554 0.493165 0.000000
vt 0.300031 0.493164 0.000000
vt 0.300034 0.007663 0.000000
vt 0.732557 0.007664 0.000000
vt 0.994644 0.493165 0.000000
vt 0.977723 0.493165 0.000000
vt 0.977726 0.007664 0.000000
vt 0.994647 0.007664 0.000000
vt 0.259189 0.963970 0.000000
vt 0.242268 0.951574 0.000000
vt 0.242270 0.509698 0.000000
vt 0.259191 0.509698 0.000000
vt 0.005367 0.963969 0.000000
vt 0.022288 0.951573 0.000000
vt 0.132278 0.972474 0.000000
vt 0.132278 0.989001 0.000000
vt 0.994644 0.506393 0.000000
vt 0.994642 0.991894 0.000000
vt 0.867730 0.991894 0.000000
vt 0.867733 0.506392 0.000000
vt 0.740819 0.991893 0.000000
vt 0.740822 0.506392 0.000000
vt 0.740821 0.493165 0.000000
vt 0.740824 0.007664 0.000000
vt 0.757746 0.007664 0.000000
vt 0.757743 0.493165 0.000000
vt 0.005368 0.488203 0.000000
vt 0.005370 0.033931 0.000000
vt 0.022291 0.046327 0.000000
vt 0.022290 0.488203 0.000000
vt 0.259191 0.488203 0.000000
vt 0.242270 0.488203 0.000000
vt 0.242271 0.046328 0.000000
vt 0.259193 0.033932 0.000000
vt 0.132282 0.008900 0.000000
vt 0.132281 0.025428 0.000000
vt 0.005368 0.509698 0.000000
vt 0.022290 0.509698 0.000000
vt 0.757743 0.482835 0.000000
vt 0.757746 0.017994 0.000000
vt 0.867736 0.017994 0.000000
vt 0.867733 0.482835 0.000000
vt 0.022290 0.477873 0.000000
vt 0.132280 0.467543 0.000000
vt 0.977726 0.017994 0.000000
vt 0.977723 0.482836 0.000000
vt 0.242270 0.477874 0.000000
vt 0.022290 0.520027 0.000000
vt 0.132280 0.530357 0.000000
vt 0.242269 0.520028 0.000000
vt 0.293250 0.025017 0.000000
vt 0.293250 0.477422 0.000000
vt 0.282920 0.460501 0.000000
vt 0.282920 0.025017 0.000000
vt 0.290238 0.499020 0.000000
vt 0.290235 0.984521 0.000000
vt 0.273314 0.974191 0.000000
vt 0.273317 0.509350 0.000000
vt 0.267315 0.477422 0.000000
vt 0.267318 0.025017 0.000000
vt 0.277648 0.025018 0.000000
vt 0.277645 0.460501 0.000000
vt 0.242825 0.493902 0.000000
vt 0.132835 0.493902 0.000000
vt 0.132836 0.504232 0.000000
vt 0.242825 0.504231 0.000000
vt 0.022845 0.493902 0.000000
vt 0.022846 0.504232 0.000000
vt 0.267316 0.025017 0.000000
vt 0.277646 0.025017 0.000000
vt 0.290233 0.499020 0.000000
vt 0.273311 0.509349 0.000000
vt 0.293250 0.477416 0.000000
vt 0.293248 0.025012 0.000000
vt 0.282918 0.025012 0.000000
vt 0.282920 0.460495 0.000000
vt 0.022845 0.493901 0.000000
vt 0.132835 0.493901 0.000000
vt 0.132835 0.504231 0.000000
vt 0.022845 0.504231 0.000000
# 84 texture coords

g Old_Bible
usemtl old_bible_mat
s 1
f 1/1/1 2/2/1 3/3/1 4/4/1
f 5/5/2 6/6/2 7/7/2 8/8/2
s 2
f 3/9/3 9/10/3 10/11/3 4/12/3
s 4
f 2/13/4 11/14/4 9/15/4 3/16/4
f 6/17/4 12/18/4 13/19/4 14/20/4
s 2
f 7/21/5 6/22/6 14/23/7 15/24/7
s 4
f 14/20/4 13/19/4 11/14/4 2/13/4
s 2
f 15/24/7 14/23/7 2/25/8 1/26/8
f 5/27/3 8/28/3 16/29/3 17/30/3
s 4
f 8/31/9 7/32/9 18/33/9 16/34/9
f 4/35/9 10/36/9 19/37/9 1/38/9
f 7/32/9 15/39/9 20/40/9 18/33/9
f 15/39/9 1/38/9 19/37/9 20/40/9
f 5/41/4 17/42/4 12/18/4 6/17/4
s 1
f 21/43/10 22/44/10 23/45/11 24/46/3
s 2
f 22/47/9 25/33/9 26/40/9 23/48/9
s 1
f 24/46/3 23/45/11 27/49/12 28/50/12
s 2
f 23/48/9 26/40/9 29/37/9 27/51/9
f 21/52/4 24/53/4 30/19/4 31/18/4
f 24/53/4 28/54/4 32/14/4 30/19/4
s 8
f 19/55/13 10/56/13 27/57/13 29/58/2
f 10/59/13 9/60/13 28/61/13 27/62/13
f 9/63/13 11/64/2 32/65/2 28/66/13
s 1
f 11/67/14 13/68/3 30/69/3 32/70/14
f 13/68/3 12/71/15 31/72/15 30/69/3
s 8
f 12/73/1 17/63/1 21/66/1 31/74/1
f 17/60/1 16/75/1 22/76/1 21/61/1
f 16/77/1 18/78/1 25/79/1 22/80/1
s 1
f 18/81/15 20/82/3 26/83/3 25/84/15
f 20/82/3 19/67/14 29/70/14 26/83/3
# 30 polygons
