# cabin building only - extracted by material
v -4.0 -3.0 0.0
v -1.1 -3.0 0.0
v -1.1 -3.0 3.0
v -4.0 -3.0 3.0
v 1.1 -3.0 0.0
v 4.0 -3.0 0.0
v 4.0 -3.0 3.0
v 1.1 -3.0 3.0
v -1.1 -3.0 2.2
v 1.1 -3.0 2.2
v 1.1 -3.0 3.0
v -1.1 -3.0 3.0
v -4.0 3.0 0.0
v -1.3 3.0 0.0
v -1.3 3.0 3.0
v -4.0 3.0 3.0
v 1.3 3.0 0.0
v 4.0 3.0 0.0
v 4.0 3.0 3.0
v 1.3 3.0 3.0
v -1.3 3.0 0.0
v 1.3 3.0 0.0
v 1.3 3.0 1.1
v -1.3 3.0 1.1
v -1.3 3.0 2.2
v 1.3 3.0 2.2
v 1.3 3.0 3.0
v -1.3 3.0 3.0
v -4.0 -3.0 0.0
v -4.0 3.0 0.0
v -4.0 3.0 3.0
v -4.0 -3.0 3.0
v 4.0 -3.0 0.0
v 4.0 -1.2 0.0
v 4.0 -1.2 3.0
v 4.0 -3.0 3.0
v 4.0 1.2 0.0
v 4.0 3.0 0.0
v 4.0 3.0 3.0
v 4.0 1.2 3.0
v 4.0 -1.2 0.0
v 4.0 1.2 0.0
v 4.0 1.2 1.1
v 4.0 -1.2 1.1
v 4.0 -1.2 2.2
v 4.0 1.2 2.2
v 4.0 1.2 3.0
v 4.0 -1.2 3.0
v -1.1 -3.015 0.0
v 1.1 -3.015 0.0
v 1.1 -3.015 2.2
v -1.1 -3.015 2.2
v -1.3 3.015 1.1
v 1.3 3.015 1.1
v 1.3 3.015 2.2
v -1.3 3.015 2.2
v 4.015 -1.2 1.1
v 4.015 1.2 1.1
v 4.015 1.2 2.2
v 4.015 -1.2 2.2
v -4.0 -3.0 3.0
v 4.0 -3.0 3.0
v 0.0 -3.0 5.0
v 4.0 3.0 3.0
v -4.0 3.0 3.0
v 0.0 3.0 5.0
v -4.0 -3.0 3.0
v 0.0 -3.0 5.0
v 0.0 3.0 5.0
v -4.0 3.0 3.0
v 0.0 -3.0 5.0
v 4.0 -3.0 3.0
v 4.0 3.0 3.0
v 0.0 3.0 5.0
v 2.2 0.7 5.7
v 2.8 0.7 5.7
v 2.8 1.3 5.7
v 2.2 1.3 5.7
v 2.8 0.7 3.0
v 2.2 0.7 3.0
v 2.2 1.3 3.0
v 2.8 1.3 3.0
v 2.8 0.7 5.7
v 2.8 0.7 3.0
v 2.8 1.3 3.0
v 2.8 1.3 5.7
v 2.2 0.7 3.0
v 2.2 0.7 5.7
v 2.2 1.3 5.7
v 2.2 1.3 3.0
v 2.2 1.3 5.7
v 2.8 1.3 5.7
v 2.8 1.3 3.0
v 2.2 1.3 3.0
v 2.2 0.7 3.0
v 2.8 0.7 3.0
v 2.8 0.7 5.7
v 2.2 0.7 5.7
v -1.5 -3.7 0.35
v 1.5 -3.7 0.35
v 1.5 -3.0 0.35
v -1.5 -3.0 0.35
v 1.5 -3.7 0.0
v -1.5 -3.7 0.0
v -1.5 -3.0 0.0
v 1.5 -3.0 0.0
v 1.5 -3.7 0.35
v 1.5 -3.7 0.0
v 1.5 -3.0 0.0
v 1.5 -3.0 0.35
v -1.5 -3.7 0.0
v -1.5 -3.7 0.35
v -1.5 -3.0 0.35
v -1.5 -3.0 0.0
v -1.5 -3.0 0.35
v 1.5 -3.0 0.35
v 1.5 -3.0 0.0
v -1.5 -3.0 0.0
v -1.5 -3.7 0.0
v 1.5 -3.7 0.0
v 1.5 -3.7 0.35
v -1.5 -3.7 0.35
vt 0.375732421875 0.64111328125
vt 0.46044921875 0.64111328125
vt 0.46044921875 0.728759765625
vt 0.375732421875 0.728759765625
vt 0.4609375 0.64111328125
vt 0.545654296875 0.64111328125
vt 0.545654296875 0.728759765625
vt 0.4609375 0.728759765625
vt 0.793701171875 0.885498046875
vt 0.85791015625 0.885498046875
vt 0.85791015625 0.908935546875
vt 0.793701171875 0.908935546875
vt 0.546142578125 0.64111328125
vt 0.625 0.64111328125
vt 0.625 0.728759765625
vt 0.546142578125 0.728759765625
vt 0.62548828125 0.64111328125
vt 0.704345703125 0.64111328125
vt 0.704345703125 0.728759765625
vt 0.62548828125 0.728759765625
vt 0.352783203125 0.885498046875
vt 0.4287109375 0.885498046875
vt 0.4287109375 0.917724609375
vt 0.352783203125 0.917724609375
vt 0.646728515625 0.885498046875
vt 0.72265625 0.885498046875
vt 0.72265625 0.908935546875
vt 0.646728515625 0.908935546875
vt 0.199951171875 0.64111328125
vt 0.375244140625 0.64111328125
vt 0.375244140625 0.728759765625
vt 0.199951171875 0.728759765625
vt 0.704833984375 0.64111328125
vt 0.757568359375 0.64111328125
vt 0.757568359375 0.728759765625
vt 0.704833984375 0.728759765625
vt 0.758056640625 0.64111328125
vt 0.810791015625 0.64111328125
vt 0.810791015625 0.728759765625
vt 0.758056640625 0.728759765625
vt 0.505615234375 0.885498046875
vt 0.57568359375 0.885498046875
vt 0.57568359375 0.917724609375
vt 0.505615234375 0.917724609375
vt 0.72314453125 0.885498046875
vt 0.793212890625 0.885498046875
vt 0.793212890625 0.908935546875
vt 0.72314453125 0.908935546875
vt 0.930908203125 0.64111328125
vt 0.9951171875 0.64111328125
vt 0.9951171875 0.705322265625
vt 0.930908203125 0.705322265625
vt 0.42919921875 0.885498046875
vt 0.505126953125 0.885498046875
vt 0.505126953125 0.917724609375
vt 0.42919921875 0.917724609375
vt 0.576171875 0.885498046875
vt 0.646240234375 0.885498046875
vt 0.646240234375 0.917724609375
vt 0.576171875 0.917724609375
vt 0.000244140625 0.75537109375
vt 0.234130859375 0.75537109375
vt 0.000244140625 0.813720703125
vt 0.234619140625 0.75537109375
vt 0.468505859375 0.75537109375
vt 0.234619140625 0.813720703125
vt 0.702392578125 0.000244140625
vt 0.8330078125 0.000244140625
vt 0.8330078125 0.175537109375
vt 0.702392578125 0.175537109375
vt 0.83349609375 0.000244140625
vt 0.964111328125 0.000244140625
vt 0.964111328125 0.175537109375
vt 0.83349609375 0.175537109375
vt 0.2685546875 0.921142578125
vt 0.2861328125 0.921142578125
vt 0.2861328125 0.938720703125
vt 0.2685546875 0.938720703125
vt 0.28662109375 0.921142578125
vt 0.30419921875 0.921142578125
vt 0.30419921875 0.938720703125
vt 0.28662109375 0.938720703125
vt 0.10986328125 0.921142578125
vt 0.188720703125 0.921142578125
vt 0.188720703125 0.938720703125
vt 0.10986328125 0.938720703125
vt 0.189208984375 0.921142578125
vt 0.26806640625 0.921142578125
vt 0.26806640625 0.938720703125
vt 0.189208984375 0.938720703125
vt 0.811279296875 0.64111328125
vt 0.828857421875 0.64111328125
vt 0.828857421875 0.719970703125
vt 0.811279296875 0.719970703125
vt 0.829345703125 0.64111328125
vt 0.846923828125 0.64111328125
vt 0.846923828125 0.719970703125
vt 0.829345703125 0.719970703125
vt 0.8583984375 0.885498046875
vt 0.946044921875 0.885498046875
vt 0.946044921875 0.906005859375
vt 0.8583984375 0.906005859375
vt 0.000244140625 0.921142578125
vt 0.087890625 0.921142578125
vt 0.087890625 0.941650390625
vt 0.000244140625 0.941650390625
vt 0.08837890625 0.921142578125
vt 0.0986328125 0.921142578125
vt 0.0986328125 0.941650390625
vt 0.08837890625 0.941650390625
vt 0.09912109375 0.921142578125
vt 0.109375 0.921142578125
vt 0.109375 0.941650390625
vt 0.09912109375 0.941650390625
vt 0.8115234375 0.921142578125
vt 0.899169921875 0.921142578125
vt 0.899169921875 0.931396484375
vt 0.8115234375 0.931396484375
vt 0.899658203125 0.921142578125
vt 0.9873046875 0.921142578125
vt 0.9873046875 0.931396484375
vt 0.899658203125 0.931396484375
usemtl glyph_c9b391
f 1/1 2/2 3/3 4/4
f 4/4 3/3 2/2 1/1
f 5/5 6/6 7/7 8/8
f 8/8 7/7 6/6 5/5
f 9/9 10/10 11/11 12/12
f 12/12 11/11 10/10 9/9
f 13/13 14/14 15/15 16/16
f 16/16 15/15 14/14 13/13
f 17/17 18/18 19/19 20/20
f 20/20 19/19 18/18 17/17
f 21/21 22/22 23/23 24/24
f 24/24 23/23 22/22 21/21
f 25/25 26/26 27/27 28/28
f 28/28 27/27 26/26 25/25
f 29/29 30/30 31/31 32/32
f 32/32 31/31 30/30 29/29
f 33/33 34/34 35/35 36/36
f 36/36 35/35 34/34 33/33
f 37/37 38/38 39/39 40/40
f 40/40 39/39 38/38 37/37
f 41/41 42/42 43/43 44/44
f 44/44 43/43 42/42 41/41
f 45/45 46/46 47/47 48/48
f 48/48 47/47 46/46 45/45
usemtl glyph_6f4e37
f 49/49 50/50 51/51 52/52
f 52/52 51/51 50/50 49/49
usemtl glyph_4ea8de
f 53/53 54/54 55/55 56/56
f 56/56 55/55 54/54 53/53
f 57/57 58/58 59/59 60/60
f 60/60 59/59 58/58 57/57
usemtl glyph_c9b391
f 61/61 62/62 63/63
f 63/63 62/62 61/61
f 64/64 65/65 66/66
f 66/66 65/65 64/64
usemtl glyph_8c4a3f
f 67/67 68/68 69/69 70/70
f 71/71 72/72 73/73 74/74
usemtl glyph_7a6a5f
f 75/75 76/76 77/77 78/78
f 79/79 80/80 81/81 82/82
f 83/83 84/84 85/85 86/86
f 87/87 88/88 89/89 90/90
f 91/91 92/92 93/93 94/94
f 95/95 96/96 97/97 98/98
usemtl glyph_8d8578
f 99/99 100/100 101/101 102/102
f 103/103 104/104 105/105 106/106
f 107/107 108/108 109/109 110/110
f 111/111 112/112 113/113 114/114
f 115/115 116/116 117/117 118/118
f 119/119 120/120 121/121 122/122
