# https://github.com/mikedh/trimesh
mtllib material.mtl

o node
usemtl material_0
v -1.50000000 -3.70000000 0.35000000
v 1.50000000 -3.70000000 0.35000000
v 1.50000000 -3.00000000 0.35000000
v -1.50000000 -3.00000000 0.35000000
v 1.50000000 -3.70000000 0.35000000
v -1.50000000 -3.70000000 0.35000000
v -1.50000000 -3.70000000 0.00000000
v 1.50000000 -3.70000000 0.00000000
v 1.50000000 -3.00000000 0.00000000
v 1.50000000 -3.00000000 0.35000000
v 1.50000000 -3.70000000 0.35000000
v 1.50000000 -3.70000000 0.00000000
v -1.50000000 -3.00000000 0.35000000
v 1.50000000 -3.00000000 0.35000000
v 1.50000000 -3.00000000 0.00000000
v -1.50000000 -3.00000000 0.00000000
v -1.50000000 -3.70000000 0.00000000
v -1.50000000 -3.70000000 0.35000000
v -1.50000000 -3.00000000 0.35000000
v -1.50000000 -3.00000000 0.00000000
v 1.50000000 -3.70000000 0.00000000
v -1.50000000 -3.70000000 0.00000000
v -1.50000000 -3.00000000 0.00000000
v 1.50000000 -3.00000000 0.00000000
v 2.20000000 0.70000000 5.70000000
v 2.80000000 0.70000000 5.70000000
v 2.80000000 1.30000000 5.70000000
v 2.20000000 1.30000000 5.70000000
v 2.80000000 0.70000000 5.70000000
v 2.20000000 0.70000000 5.70000000
v 2.20000000 0.70000000 3.00000000
v 2.80000000 0.70000000 3.00000000
v 2.80000000 1.30000000 3.00000000
v 2.80000000 1.30000000 5.70000000
v 2.80000000 0.70000000 5.70000000
v 2.80000000 0.70000000 3.00000000
v 2.20000000 1.30000000 5.70000000
v 2.80000000 1.30000000 5.70000000
v 2.80000000 1.30000000 3.00000000
v 2.20000000 1.30000000 3.00000000
v 2.20000000 0.70000000 3.00000000
v 2.20000000 0.70000000 5.70000000
v 2.20000000 1.30000000 5.70000000
v 2.20000000 1.30000000 3.00000000
v 2.80000000 0.70000000 3.00000000
v 2.20000000 0.70000000 3.00000000
v 2.20000000 1.30000000 3.00000000
v 2.80000000 1.30000000 3.00000000
v -4.00000000 -3.00000000 3.00000000
v 4.00000000 -3.00000000 3.00000000
v 0.00000000 -3.00000000 5.00000000
v 4.00000000 3.00000000 3.00000000
v -4.00000000 3.00000000 3.00000000
v 0.00000000 3.00000000 5.00000000
v -4.00000000 -3.00000000 3.00000000
v -4.00000000 3.00000000 3.00000000
v -4.00000000 3.00000000 0.00000000
v -4.00000000 -3.00000000 0.00000000
v -4.00000000 3.00000000 3.00000000
v -4.00000000 -3.00000000 3.00000000
v -4.00000000 -3.00000000 0.00000000
v -4.00000000 3.00000000 0.00000000
v 0.00000000 3.00000000 5.00000000
v -4.00000000 3.00000000 3.00000000
v 4.00000000 3.00000000 3.00000000
v 0.00000000 -3.00000000 5.00000000
v 4.00000000 -3.00000000 3.00000000
v -4.00000000 -3.00000000 3.00000000
v 0.00000000 3.00000000 5.00000000
v -4.00000000 3.00000000 3.00000000
v -4.00000000 -3.00000000 3.00000000
v 0.00000000 -3.00000000 5.00000000
v 0.00000000 -3.00000000 5.00000000
v 4.00000000 -3.00000000 3.00000000
v 4.00000000 3.00000000 3.00000000
v 0.00000000 3.00000000 5.00000000
v -1.30000000 3.01500000 1.10000000
v 1.30000000 3.01500000 1.10000000
v 1.30000000 3.01500000 2.20000000
v -1.30000000 3.01500000 2.20000000
v 1.30000000 3.01500000 1.10000000
v -1.30000000 3.01500000 1.10000000
v -1.30000000 3.01500000 2.20000000
v 1.30000000 3.01500000 2.20000000
v 4.01500000 -1.20000000 1.10000000
v 4.01500000 1.20000000 1.10000000
v 4.01500000 1.20000000 2.20000000
v 4.01500000 -1.20000000 2.20000000
v 4.01500000 1.20000000 1.10000000
v 4.01500000 -1.20000000 1.10000000
v 4.01500000 -1.20000000 2.20000000
v 4.01500000 1.20000000 2.20000000
v -1.10000000 -3.01500000 0.00000000
v 1.10000000 -3.01500000 0.00000000
v 1.10000000 -3.01500000 2.20000000
v -1.10000000 -3.01500000 2.20000000
v 1.10000000 -3.01500000 0.00000000
v -1.10000000 -3.01500000 0.00000000
v -1.10000000 -3.01500000 2.20000000
v 1.10000000 -3.01500000 2.20000000
v -4.00000000 -3.00000000 0.00000000
v -1.10000000 -3.00000000 0.00000000
v -1.10000000 -3.00000000 3.00000000
v -4.00000000 -3.00000000 3.00000000
v -1.10000000 -3.00000000 0.00000000
v -4.00000000 -3.00000000 0.00000000
v -4.00000000 -3.00000000 3.00000000
v -1.10000000 -3.00000000 3.00000000
v 1.10000000 -3.00000000 0.00000000
v 4.00000000 -3.00000000 0.00000000
v 4.00000000 -3.00000000 3.00000000
v 1.10000000 -3.00000000 3.00000000
v 4.00000000 -3.00000000 0.00000000
v 1.10000000 -3.00000000 0.00000000
v 1.10000000 -3.00000000 3.00000000
v 4.00000000 -3.00000000 3.00000000
v -1.10000000 -3.00000000 2.20000000
v 1.10000000 -3.00000000 2.20000000
v 1.10000000 -3.00000000 3.00000000
v -1.10000000 -3.00000000 3.00000000
v 1.10000000 -3.00000000 2.20000000
v -1.10000000 -3.00000000 2.20000000
v -1.10000000 -3.00000000 3.00000000
v 1.10000000 -3.00000000 3.00000000
v -4.00000000 3.00000000 0.00000000
v -1.30000000 3.00000000 0.00000000
v -1.30000000 3.00000000 3.00000000
v -4.00000000 3.00000000 3.00000000
v -1.30000000 3.00000000 0.00000000
v -4.00000000 3.00000000 0.00000000
v -4.00000000 3.00000000 3.00000000
v -1.30000000 3.00000000 3.00000000
v 1.30000000 3.00000000 0.00000000
v 4.00000000 3.00000000 0.00000000
v 4.00000000 3.00000000 3.00000000
v 1.30000000 3.00000000 3.00000000
v 4.00000000 3.00000000 0.00000000
v 1.30000000 3.00000000 0.00000000
v 1.30000000 3.00000000 3.00000000
v 4.00000000 3.00000000 3.00000000
v -1.30000000 3.00000000 0.00000000
v 1.30000000 3.00000000 0.00000000
v 1.30000000 3.00000000 1.10000000
v -1.30000000 3.00000000 1.10000000
v 1.30000000 3.00000000 0.00000000
v -1.30000000 3.00000000 0.00000000
v -1.30000000 3.00000000 1.10000000
v 1.30000000 3.00000000 1.10000000
v -1.30000000 3.00000000 2.20000000
v 1.30000000 3.00000000 2.20000000
v 1.30000000 3.00000000 3.00000000
v -1.30000000 3.00000000 3.00000000
v 1.30000000 3.00000000 2.20000000
v -1.30000000 3.00000000 2.20000000
v -1.30000000 3.00000000 3.00000000
v 1.30000000 3.00000000 3.00000000
v 4.00000000 -3.00000000 0.00000000
v 4.00000000 -1.20000000 0.00000000
v 4.00000000 -1.20000000 3.00000000
v 4.00000000 -3.00000000 3.00000000
v 4.00000000 -1.20000000 0.00000000
v 4.00000000 -3.00000000 0.00000000
v 4.00000000 -3.00000000 3.00000000
v 4.00000000 -1.20000000 3.00000000
v 4.00000000 1.20000000 0.00000000
v 4.00000000 3.00000000 0.00000000
v 4.00000000 3.00000000 3.00000000
v 4.00000000 1.20000000 3.00000000
v 4.00000000 3.00000000 0.00000000
v 4.00000000 1.20000000 0.00000000
v 4.00000000 1.20000000 3.00000000
v 4.00000000 3.00000000 3.00000000
v 4.00000000 -1.20000000 0.00000000
v 4.00000000 1.20000000 0.00000000
v 4.00000000 1.20000000 1.10000000
v 4.00000000 -1.20000000 1.10000000
v 4.00000000 1.20000000 0.00000000
v 4.00000000 -1.20000000 0.00000000
v 4.00000000 -1.20000000 1.10000000
v 4.00000000 1.20000000 1.10000000
v 4.00000000 -1.20000000 2.20000000
v 4.00000000 1.20000000 2.20000000
v 4.00000000 1.20000000 3.00000000
v 4.00000000 -1.20000000 3.00000000
v 4.00000000 1.20000000 2.20000000
v 4.00000000 -1.20000000 2.20000000
v 4.00000000 -1.20000000 3.00000000
v 4.00000000 1.20000000 3.00000000
vt 0.94857985 0.65321010
vt 0.94857985 0.49464980
vt 0.91136140 0.49464980
vt 0.91136140 0.65321010
vt 0.31684622 0.34581712
vt 0.47649363 0.34581712
vt 0.47649363 0.36429963
vt 0.31684622 0.36429963
vt 0.73114592 0.19212063
vt 0.73114592 0.17363814
vt 0.69392753 0.17363814
vt 0.69392753 0.19212063
vt 0.16797258 0.80787939
vt 0.32761997 0.80787939
vt 0.32761997 0.82636189
vt 0.16797258 0.82636189
vt 0.43633693 0.98103112
vt 0.43633693 0.96254861
vt 0.39911851 0.96254861
vt 0.39911851 0.98103112
vt 0.16013712 0.58317119
vt 0.00048972 0.58317119
vt 0.00048972 0.54620624
vt 0.16013712 0.54620624
vt 0.49902058 0.43822956
vt 0.49902058 0.40612841
vt 0.46669930 0.40612841
vt 0.46669930 0.43822956
vt 0.00734574 0.43336576
vt 0.00734574 0.46546692
vt 0.15132223 0.46546692
vt 0.15132223 0.43336576
vt 0.14936337 0.35262647
vt 0.00538688 0.35262647
vt 0.00538688 0.32052529
vt 0.14936337 0.32052529
vt 0.56562191 0.58511674
vt 0.56562191 0.61721790
vt 0.70959842 0.61721790
vt 0.70959842 0.58511674
vt 0.44809011 0.46741244
vt 0.30411363 0.46741244
vt 0.30411363 0.43531129
vt 0.44809011 0.43531129
vt 0.97600394 0.73200387
vt 0.94368267 0.73200387
vt 0.94368267 0.69990271
vt 0.97600394 0.69990271
vt 0.05533790 0.64542800
vt 0.48041135 0.64542800
vt 0.26787463 0.53939688
vt 0.58521056 0.08608949
vt 0.58521056 0.50826848
vt 0.47845250 0.29717898
vt 0.01714006 0.64640075
vt 0.33643487 0.64640075
vt 0.33643487 0.80496109
vt 0.01714006 0.80496109
vt 0.58618999 0.26702335
vt 0.58618999 0.58414400
vt 0.74583739 0.58414400
vt 0.74583739 0.26702335
vt 0.22673850 0.43239298
vt 0.01420176 0.53842413
vt 0.43927523 0.53842413
vt 0.23065622 0.32538912
vt 0.01811949 0.43142024
vt 0.44319296 0.43142024
vt 0.23947111 0.32636186
vt 0.47747308 0.32636186
vt 0.47747308 0.00924124
vt 0.23947111 0.00924124
vt 0.00048972 0.31760702
vt 0.23849167 0.31760702
vt 0.23849167 0.00048638
vt 0.00048972 0.00048638
vt 0.95445639 0.47227627
vt 0.95445639 0.33511674
vt 0.89569050 0.33511674
vt 0.89569050 0.47227627
vt 0.54799217 0.15029183
vt 0.54799217 0.01313230
vt 0.48922625 0.01313230
vt 0.48922625 0.15029183
vt 0.35896179 0.99464983
vt 0.23065622 0.99464983
vt 0.23065622 0.93628407
vt 0.35896179 0.93628407
vt 0.59598434 0.98005837
vt 0.46767876 0.98005837
vt 0.46767876 0.92169261
vt 0.59598434 0.92169261
vt 0.90352595 0.94114786
vt 0.90352595 0.82441634
vt 0.78599411 0.82441634
vt 0.78599411 0.94114786
vt 0.55876589 0.58998054
vt 0.44123408 0.58998054
vt 0.44123408 0.47324902
vt 0.55876589 0.47324902
vt 0.74387854 0.26507783
vt 0.89862877 0.26507783
vt 0.89862877 0.10651751
vt 0.74387854 0.10651751
vt 0.60088152 0.78064203
vt 0.75563174 0.78064203
vt 0.75563174 0.62208170
vt 0.60088152 0.62208170
vt 0.58814889 0.16391051
vt 0.74289912 0.16391051
vt 0.74289912 0.00535019
vt 0.58814889 0.00535019
vt 0.59892261 0.65029180
vt 0.59892261 0.80398834
vt 0.43927523 0.80398834
vt 0.43927523 0.65029180
vt 0.99265426 0.63278210
vt 0.99265426 0.51605058
vt 0.94955927 0.51605058
vt 0.94955927 0.63278210
vt 0.99951029 0.48589495
vt 0.99951029 0.36916342
vt 0.95641530 0.36916342
vt 0.95641530 0.48589495
vt 0.77619982 0.94212061
vt 0.77619982 0.79912454
vt 0.61655241 0.79912454
vt 0.61655241 0.94212061
vt 0.90842313 0.79717898
vt 0.76444662 0.79717898
vt 0.76444662 0.63861865
vt 0.90842313 0.63861865
vt 0.90058768 0.63764590
vt 0.75661117 0.63764590
vt 0.75661117 0.47908559
vt 0.90058768 0.47908559
vt 0.89373165 0.45379376
vt 0.74975514 0.45379376
vt 0.74975514 0.29523346
vt 0.89373165 0.29523346
vt 0.72820765 0.26313230
vt 0.59010774 0.26313230
vt 0.59010774 0.20476654
vt 0.72820765 0.20476654
vt 0.41478941 0.81955254
vt 0.41478941 0.68239301
vt 0.35602352 0.68239301
vt 0.35602352 0.81955254
vt 0.86630756 0.98686773
vt 0.72820765 0.98686773
vt 0.72820765 0.94406617
vt 0.86630756 0.94406617
vt 0.19833496 0.98784047
vt 0.06023506 0.98784047
vt 0.06023506 0.94503891
vt 0.19833496 0.94503891
vt 0.93780607 0.10068093
vt 0.93780607 0.00535019
vt 0.77815866 0.00535019
vt 0.77815866 0.10068093
vt 0.40205681 0.93433851
vt 0.40205681 0.83900779
vt 0.24240941 0.83900779
vt 0.24240941 0.93433851
vt 0.56953967 0.91877431
vt 0.56953967 0.82344359
vt 0.40989226 0.82344359
vt 0.40989226 0.91877431
vt 0.18168463 0.93920231
vt 0.18168463 0.84387159
vt 0.02203722 0.84387159
vt 0.02203722 0.93920231
vt 0.96816844 0.86332685
vt 0.96816844 0.73589492
vt 0.90940255 0.73589492
vt 0.90940255 0.86332685
vt 0.96229190 0.31566149
vt 0.96229190 0.18822958
vt 0.90352595 0.18822958
vt 0.90352595 0.31566149
vt 0.98481882 0.18628405
vt 0.98481882 0.05885214
vt 0.94172382 0.05885214
vt 0.94172382 0.18628405
vt 0.97306561 0.99951363
vt 0.97306561 0.87208170
vt 0.92997062 0.87208170
vt 0.92997062 0.99951363
f 1/1 2/2 3/3
f 21/21 22/22 23/23
f 11/11 12/12 9/9
f 17/17 18/18 19/19
f 13/13 14/14 15/15
f 7/7 8/8 5/5
f 3/3 4/4 1/1
f 23/23 24/24 21/21
f 9/9 10/10 11/11
f 19/19 20/20 17/17
f 15/15 16/16 13/13
f 5/5 6/6 7/7
f 25/25 26/26 27/27
f 45/45 46/46 47/47
f 35/35 36/36 33/33
f 41/41 42/42 43/43
f 37/37 38/38 39/39
f 31/31 32/32 29/29
f 27/27 28/28 25/25
f 47/47 48/48 45/45
f 33/33 34/34 35/35
f 43/43 44/44 41/41
f 39/39 40/40 37/37
f 29/29 30/30 31/31
f 71/71 72/72 69/69
f 73/73 74/74 75/75
f 69/69 70/70 71/71
f 75/75 76/76 73/73
f 77/77 78/78 79/79
f 83/83 84/84 81/81
f 85/85 86/86 87/87
f 91/91 92/92 89/89
f 79/79 80/80 77/77
f 81/81 82/82 83/83
f 87/87 88/88 85/85
f 89/89 90/90 91/91
f 93/93 94/94 95/95
f 99/99 100/100 97/97
f 95/95 96/96 93/93
f 97/97 98/98 99/99
f 101/101 102/102 103/103
f 103/103 104/104 101/101
f 107/107 108/108 105/105
f 105/105 106/106 107/107
f 109/109 110/110 111/111
f 111/111 112/112 109/109
f 115/115 116/116 113/113
f 113/113 114/114 115/115
f 117/117 118/118 119/119
f 119/119 120/120 117/117
f 123/123 124/124 121/121
f 121/121 122/122 123/123
f 125/125 126/126 127/127
f 127/127 128/128 125/125
f 131/131 132/132 129/129
f 129/129 130/130 131/131
f 133/133 134/134 135/135
f 135/135 136/136 133/133
f 139/139 140/140 137/137
f 137/137 138/138 139/139
f 141/141 142/142 143/143
f 143/143 144/144 141/141
f 147/147 148/148 145/145
f 145/145 146/146 147/147
f 149/149 150/150 151/151
f 151/151 152/152 149/149
f 155/155 156/156 153/153
f 153/153 154/154 155/155
f 61/61 62/62 59/59
f 59/59 60/60 61/61
f 55/55 56/56 57/57
f 57/57 58/58 55/55
f 157/157 158/158 159/159
f 159/159 160/160 157/157
f 163/163 164/164 161/161
f 161/161 162/162 163/163
f 165/165 166/166 167/167
f 167/167 168/168 165/165
f 171/171 172/172 169/169
f 169/169 170/170 171/171
f 173/173 174/174 175/175
f 175/175 176/176 173/173
f 179/179 180/180 177/177
f 177/177 178/178 179/179
f 181/181 182/182 183/183
f 183/183 184/184 181/181
f 187/187 188/188 185/185
f 185/185 186/186 187/187
f 49/49 50/50 51/51
f 66/66 67/67 68/68
f 52/52 53/53 54/54
f 63/63 64/64 65/65

