# Authored glyph scene: cabin
mtllib cabin.mtl
o glyph_scene
usemtl glyph_6b7f52
v -12 -9 0
v 12 -9 0
v 12 9 0
v -12 9 0
vt 0.000244140625 0.000244140625
vt 0.701904296875 0.000244140625
vt 0.701904296875 0.5263671875
vt 0.000244140625 0.5263671875
f 1/1 2/2 3/3 4/4
usemtl glyph_a89b84
v -0.6 -9 0.02
v 0.6 -9 0.02
v 0.6 -3 0.02
v -0.6 -3 0.02
vt 0.964599609375 0.000244140625
vt 0.999755859375 0.000244140625
vt 0.999755859375 0.175537109375
vt 0.964599609375 0.175537109375
f 5/5 6/6 7/7 8/8
usemtl glyph_c9b391
v -4 -3 0
v -1.1 -3 0
v -1.1 -3 3
v -4 -3 3
vt 0.375732421875 0.64111328125
vt 0.46044921875 0.64111328125
vt 0.46044921875 0.728759765625
vt 0.375732421875 0.728759765625
f 9/9 10/10 11/11 12/12
v 1.1 -3 0
v 4 -3 0
v 4 -3 3
v 1.1 -3 3
vt 0.4609375 0.64111328125
vt 0.545654296875 0.64111328125
vt 0.545654296875 0.728759765625
vt 0.4609375 0.728759765625
f 13/13 14/14 15/15 16/16
v -1.1 -3 2.2
v 1.1 -3 2.2
v 1.1 -3 3
v -1.1 -3 3
vt 0.793701171875 0.885498046875
vt 0.85791015625 0.885498046875
vt 0.85791015625 0.908935546875
vt 0.793701171875 0.908935546875
f 17/17 18/18 19/19 20/20
v -4 3 0
v -1.3 3 0
v -1.3 3 3
v -4 3 3
vt 0.546142578125 0.64111328125
vt 0.625 0.64111328125
vt 0.625 0.728759765625
vt 0.546142578125 0.728759765625
f 21/21 22/22 23/23 24/24
v 1.3 3 0
v 4 3 0
v 4 3 3
v 1.3 3 3
vt 0.62548828125 0.64111328125
vt 0.704345703125 0.64111328125
vt 0.704345703125 0.728759765625
vt 0.62548828125 0.728759765625
f 25/25 26/26 27/27 28/28
v -1.3 3 0
v 1.3 3 0
v 1.3 3 1.1
v -1.3 3 1.1
vt 0.352783203125 0.885498046875
vt 0.4287109375 0.885498046875
vt 0.4287109375 0.917724609375
vt 0.352783203125 0.917724609375
f 29/29 30/30 31/31 32/32
v -1.3 3 2.2
v 1.3 3 2.2
v 1.3 3 3
v -1.3 3 3
vt 0.646728515625 0.885498046875
vt 0.72265625 0.885498046875
vt 0.72265625 0.908935546875
vt 0.646728515625 0.908935546875
f 33/33 34/34 35/35 36/36
v -4 -3 0
v -4 3 0
v -4 3 3
v -4 -3 3
vt 0.199951171875 0.64111328125
vt 0.375244140625 0.64111328125
vt 0.375244140625 0.728759765625
vt 0.199951171875 0.728759765625
f 37/37 38/38 39/39 40/40
v 4 -3 0
v 4 -1.2 0
v 4 -1.2 3
v 4 -3 3
vt 0.704833984375 0.64111328125
vt 0.757568359375 0.64111328125
vt 0.757568359375 0.728759765625
vt 0.704833984375 0.728759765625
f 41/41 42/42 43/43 44/44
v 4 1.2 0
v 4 3 0
v 4 3 3
v 4 1.2 3
vt 0.758056640625 0.64111328125
vt 0.810791015625 0.64111328125
vt 0.810791015625 0.728759765625
vt 0.758056640625 0.728759765625
f 45/45 46/46 47/47 48/48
v 4 -1.2 0
v 4 1.2 0
v 4 1.2 1.1
v 4 -1.2 1.1
vt 0.505615234375 0.885498046875
vt 0.57568359375 0.885498046875
vt 0.57568359375 0.917724609375
vt 0.505615234375 0.917724609375
f 49/49 50/50 51/51 52/52
v 4 -1.2 2.2
v 4 1.2 2.2
v 4 1.2 3
v 4 -1.2 3
vt 0.72314453125 0.885498046875
vt 0.793212890625 0.885498046875
vt 0.793212890625 0.908935546875
vt 0.72314453125 0.908935546875
f 53/53 54/54 55/55 56/56
usemtl glyph_6f4e37
v -1.1 -3.015 0
v 1.1 -3.015 0
v 1.1 -3.015 2.2
v -1.1 -3.015 2.2
vt 0.930908203125 0.64111328125
vt 0.9951171875 0.64111328125
vt 0.9951171875 0.705322265625
vt 0.930908203125 0.705322265625
f 57/57 58/58 59/59 60/60
usemtl glyph_4ea8de
v -1.3 3.015 1.1
v 1.3 3.015 1.1
v 1.3 3.015 2.2
v -1.3 3.015 2.2
vt 0.42919921875 0.885498046875
vt 0.505126953125 0.885498046875
vt 0.505126953125 0.917724609375
vt 0.42919921875 0.917724609375
f 61/61 62/62 63/63 64/64
v 4.015 -1.2 1.1
v 4.015 1.2 1.1
v 4.015 1.2 2.2
v 4.015 -1.2 2.2
vt 0.576171875 0.885498046875
vt 0.646240234375 0.885498046875
vt 0.646240234375 0.917724609375
vt 0.576171875 0.917724609375
f 65/65 66/66 67/67 68/68
usemtl glyph_c9b391
v -4 -3 3
v 4 -3 3
v 0 -3 5
vt 0.000244140625 0.75537109375
vt 0.234130859375 0.75537109375
vt 0.000244140625 0.813720703125
f 69/69 70/70 71/71
v 4 3 3
v -4 3 3
v 0 3 5
vt 0.234619140625 0.75537109375
vt 0.468505859375 0.75537109375
vt 0.234619140625 0.813720703125
f 72/72 73/73 74/74
usemtl glyph_8c4a3f
v -4 -3 3
v 0 -3 5
v 0 3 5
v -4 3 3
vt 0.702392578125 0.000244140625
vt 0.8330078125 0.000244140625
vt 0.8330078125 0.175537109375
vt 0.702392578125 0.175537109375
f 75/75 76/76 77/77 78/78
v 0 -3 5
v 4 -3 3
v 4 3 3
v 0 3 5
vt 0.83349609375 0.000244140625
vt 0.964111328125 0.000244140625
vt 0.964111328125 0.175537109375
vt 0.83349609375 0.175537109375
f 79/79 80/80 81/81 82/82
usemtl glyph_7a6a5f
v 2.2 0.7 5.7
v 2.8 0.7 5.7
v 2.8 1.3 5.7
v 2.2 1.3 5.7
vt 0.2685546875 0.921142578125
vt 0.2861328125 0.921142578125
vt 0.2861328125 0.938720703125
vt 0.2685546875 0.938720703125
f 83/83 84/84 85/85 86/86
v 2.8 0.7 3
v 2.2 0.7 3
v 2.2 1.3 3
v 2.8 1.3 3
vt 0.28662109375 0.921142578125
vt 0.30419921875 0.921142578125
vt 0.30419921875 0.938720703125
vt 0.28662109375 0.938720703125
f 87/87 88/88 89/89 90/90
v 2.8 0.7 5.7
v 2.8 0.7 3
v 2.8 1.3 3
v 2.8 1.3 5.7
vt 0.10986328125 0.921142578125
vt 0.188720703125 0.921142578125
vt 0.188720703125 0.938720703125
vt 0.10986328125 0.938720703125
f 91/91 92/92 93/93 94/94
v 2.2 0.7 3
v 2.2 0.7 5.7
v 2.2 1.3 5.7
v 2.2 1.3 3
vt 0.189208984375 0.921142578125
vt 0.26806640625 0.921142578125
vt 0.26806640625 0.938720703125
vt 0.189208984375 0.938720703125
f 95/95 96/96 97/97 98/98
v 2.2 1.3 5.7
v 2.8 1.3 5.7
v 2.8 1.3 3
v 2.2 1.3 3
vt 0.811279296875 0.64111328125
vt 0.828857421875 0.64111328125
vt 0.828857421875 0.719970703125
vt 0.811279296875 0.719970703125
f 99/99 100/100 101/101 102/102
v 2.2 0.7 3
v 2.8 0.7 3
v 2.8 0.7 5.7
v 2.2 0.7 5.7
vt 0.829345703125 0.64111328125
vt 0.846923828125 0.64111328125
vt 0.846923828125 0.719970703125
vt 0.829345703125 0.719970703125
f 103/103 104/104 105/105 106/106
usemtl glyph_8d8578
v -1.5 -3.7 0.35
v 1.5 -3.7 0.35
v 1.5 -3 0.35
v -1.5 -3 0.35
vt 0.8583984375 0.885498046875
vt 0.946044921875 0.885498046875
vt 0.946044921875 0.906005859375
vt 0.8583984375 0.906005859375
f 107/107 108/108 109/109 110/110
v 1.5 -3.7 0
v -1.5 -3.7 0
v -1.5 -3 0
v 1.5 -3 0
vt 0.000244140625 0.921142578125
vt 0.087890625 0.921142578125
vt 0.087890625 0.941650390625
vt 0.000244140625 0.941650390625
f 111/111 112/112 113/113 114/114
v 1.5 -3.7 0.35
v 1.5 -3.7 0
v 1.5 -3 0
v 1.5 -3 0.35
vt 0.08837890625 0.921142578125
vt 0.0986328125 0.921142578125
vt 0.0986328125 0.941650390625
vt 0.08837890625 0.941650390625
f 115/115 116/116 117/117 118/118
v -1.5 -3.7 0
v -1.5 -3.7 0.35
v -1.5 -3 0.35
v -1.5 -3 0
vt 0.09912109375 0.921142578125
vt 0.109375 0.921142578125
vt 0.109375 0.941650390625
vt 0.09912109375 0.941650390625
f 119/119 120/120 121/121 122/122
v -1.5 -3 0.35
v 1.5 -3 0.35
v 1.5 -3 0
v -1.5 -3 0
vt 0.8115234375 0.921142578125
vt 0.899169921875 0.921142578125
vt 0.899169921875 0.931396484375
vt 0.8115234375 0.931396484375
f 123/123 124/124 125/125 126/126
v -1.5 -3.7 0
v 1.5 -3.7 0
v 1.5 -3.7 0.35
v -1.5 -3.7 0.35
vt 0.899658203125 0.921142578125
vt 0.9873046875 0.921142578125
vt 0.9873046875 0.931396484375
vt 0.899658203125 0.931396484375
f 127/127 128/128 129/129 130/130
usemtl glyph_a7774f
v -12 9 0.25
v -8 9 0.25
v -8 9 1.45
v -12 9 1.45
vt 0.4404296875 0.814208984375
vt 0.557373046875 0.814208984375
vt 0.557373046875 0.849365234375
vt 0.4404296875 0.849365234375
f 131/131 132/132 133/133 134/134
v -8 9 0.25
v -4 9 0.25
v -4 9 1.45
v -8 9 1.45
vt 0.557861328125 0.814208984375
vt 0.6748046875 0.814208984375
vt 0.6748046875 0.849365234375
vt 0.557861328125 0.849365234375
f 135/135 136/136 137/137 138/138
v -4 9 0.25
v 0 9 0.25
v 0 9 1.45
v -4 9 1.45
vt 0.67529296875 0.814208984375
vt 0.792236328125 0.814208984375
vt 0.792236328125 0.849365234375
vt 0.67529296875 0.849365234375
f 139/139 140/140 141/141 142/142
v 0 9 0.25
v 4 9 0.25
v 4 9 1.45
v 0 9 1.45
vt 0.792724609375 0.814208984375
vt 0.90966796875 0.814208984375
vt 0.90966796875 0.849365234375
vt 0.792724609375 0.849365234375
f 143/143 144/144 145/145 146/146
v 4 9 0.25
v 8 9 0.25
v 8 9 1.45
v 4 9 1.45
vt 0.000244140625 0.849853515625
vt 0.1171875 0.849853515625
vt 0.1171875 0.885009765625
vt 0.000244140625 0.885009765625
f 147/147 148/148 149/149 150/150
v 8 9 0.25
v 12 9 0.25
v 12 9 1.45
v 8 9 1.45
vt 0.11767578125 0.849853515625
vt 0.234619140625 0.849853515625
vt 0.234619140625 0.885009765625
vt 0.11767578125 0.885009765625
f 151/151 152/152 153/153 154/154
v -12 -9 0.25
v -12 -5 0.25
v -12 -5 1.45
v -12 -9 1.45
vt 0.235107421875 0.849853515625
vt 0.35205078125 0.849853515625
vt 0.35205078125 0.885009765625
vt 0.235107421875 0.885009765625
f 155/155 156/156 157/157 158/158
v -12 -5 0.25
v -12 -1 0.25
v -12 -1 1.45
v -12 -5 1.45
vt 0.3525390625 0.849853515625
vt 0.469482421875 0.849853515625
vt 0.469482421875 0.885009765625
vt 0.3525390625 0.885009765625
f 159/159 160/160 161/161 162/162
v -12 -1 0.25
v -12 3 0.25
v -12 3 1.45
v -12 -1 1.45
vt 0.469970703125 0.849853515625
vt 0.5869140625 0.849853515625
vt 0.5869140625 0.885009765625
vt 0.469970703125 0.885009765625
f 163/163 164/164 165/165 166/166
v -12 3 0.25
v -12 7 0.25
v -12 7 1.45
v -12 3 1.45
vt 0.58740234375 0.849853515625
vt 0.704345703125 0.849853515625
vt 0.704345703125 0.885009765625
vt 0.58740234375 0.885009765625
f 167/167 168/168 169/169 170/170
v -12 7 0.25
v -12 9 0.25
v -12 9 1.45
v -12 7 1.45
vt 0.235107421875 0.885498046875
vt 0.29345703125 0.885498046875
vt 0.29345703125 0.920654296875
vt 0.235107421875 0.920654296875
f 171/171 172/172 173/173 174/174
v 12 -9 0.25
v 12 -5 0.25
v 12 -5 1.45
v 12 -9 1.45
vt 0.704833984375 0.849853515625
vt 0.82177734375 0.849853515625
vt 0.82177734375 0.885009765625
vt 0.704833984375 0.885009765625
f 175/175 176/176 177/177 178/178
v 12 -5 0.25
v 12 -1 0.25
v 12 -1 1.45
v 12 -5 1.45
vt 0.822265625 0.849853515625
vt 0.939208984375 0.849853515625
vt 0.939208984375 0.885009765625
vt 0.822265625 0.885009765625
f 179/179 180/180 181/181 182/182
v 12 -1 0.25
v 12 3 0.25
v 12 3 1.45
v 12 -1 1.45
vt 0.000244140625 0.885498046875
vt 0.1171875 0.885498046875
vt 0.1171875 0.920654296875
vt 0.000244140625 0.920654296875
f 183/183 184/184 185/185 186/186
v 12 3 0.25
v 12 7 0.25
v 12 7 1.45
v 12 3 1.45
vt 0.11767578125 0.885498046875
vt 0.234619140625 0.885498046875
vt 0.234619140625 0.920654296875
vt 0.11767578125 0.920654296875
f 187/187 188/188 189/189 190/190
v 12 7 0.25
v 12 9 0.25
v 12 9 1.45
v 12 7 1.45
vt 0.2939453125 0.885498046875
vt 0.352294921875 0.885498046875
vt 0.352294921875 0.920654296875
vt 0.2939453125 0.920654296875
f 191/191 192/192 193/193 194/194
v -12 -9 0.25
v -7 -9 0.25
v -7 -9 1.45
v -12 -9 1.45
vt 0.735595703125 0.75537109375
vt 0.8818359375 0.75537109375
vt 0.8818359375 0.79052734375
vt 0.735595703125 0.79052734375
f 195/195 196/196 197/197 198/198
v -7 -9 0.25
v -2 -9 0.25
v -2 -9 1.45
v -7 -9 1.45
vt 0.000244140625 0.814208984375
vt 0.146484375 0.814208984375
vt 0.146484375 0.849365234375
vt 0.000244140625 0.849365234375
f 199/199 200/200 201/201 202/202
v 2 -9 0.25
v 7 -9 0.25
v 7 -9 1.45
v 2 -9 1.45
vt 0.14697265625 0.814208984375
vt 0.293212890625 0.814208984375
vt 0.293212890625 0.849365234375
vt 0.14697265625 0.849365234375
f 203/203 204/204 205/205 206/206
v 7 -9 0.25
v 12 -9 0.25
v 12 -9 1.45
v 7 -9 1.45
vt 0.293701171875 0.814208984375
vt 0.43994140625 0.814208984375
vt 0.43994140625 0.849365234375
vt 0.293701171875 0.849365234375
f 207/207 208/208 209/209 210/210
usemtl glyph_5b4636
v -12.1 8.9 1.7
v -11.9 8.9 1.7
v -11.9 9.1 1.7
v -12.1 9.1 1.7
vt 0.201416015625 0.954833984375
vt 0.207275390625 0.954833984375
vt 0.207275390625 0.960693359375
vt 0.201416015625 0.960693359375
f 211/211 212/212 213/213 214/214
v -11.9 8.9 0
v -12.1 8.9 0
v -12.1 9.1 0
v -11.9 9.1 0
vt 0.207763671875 0.954833984375
vt 0.213623046875 0.954833984375
vt 0.213623046875 0.960693359375
vt 0.207763671875 0.960693359375
f 215/215 216/216 217/217 218/218
v -11.9 8.9 1.7
v -11.9 8.9 0
v -11.9 9.1 0
v -11.9 9.1 1.7
vt 0.000244140625 0.942138671875
vt 0.050048828125 0.942138671875
vt 0.050048828125 0.947998046875
vt 0.000244140625 0.947998046875
f 219/219 220/220 221/221 222/222
v -12.1 8.9 0
v -12.1 8.9 1.7
v -12.1 9.1 1.7
v -12.1 9.1 0
vt 0.050537109375 0.942138671875
vt 0.100341796875 0.942138671875
vt 0.100341796875 0.947998046875
vt 0.050537109375 0.947998046875
f 223/223 224/224 225/225 226/226
v -12.1 9.1 1.7
v -11.9 9.1 1.7
v -11.9 9.1 0
v -12.1 9.1 0
vt 0.468994140625 0.75537109375
vt 0.474853515625 0.75537109375
vt 0.474853515625 0.80517578125
vt 0.468994140625 0.80517578125
f 227/227 228/228 229/229 230/230
v -12.1 8.9 0
v -11.9 8.9 0
v -11.9 8.9 1.7
v -12.1 8.9 1.7
vt 0.475341796875 0.75537109375
vt 0.481201171875 0.75537109375
vt 0.481201171875 0.80517578125
vt 0.475341796875 0.80517578125
f 231/231 232/232 233/233 234/234
v -8.1 8.9 1.7
v -7.9 8.9 1.7
v -7.9 9.1 1.7
v -8.1 9.1 1.7
vt 0.214111328125 0.954833984375
vt 0.219970703125 0.954833984375
vt 0.219970703125 0.960693359375
vt 0.214111328125 0.960693359375
f 235/235 236/236 237/237 238/238
v -7.9 8.9 0
v -8.1 8.9 0
v -8.1 9.1 0
v -7.9 9.1 0
vt 0.220458984375 0.954833984375
vt 0.226318359375 0.954833984375
vt 0.226318359375 0.960693359375
vt 0.220458984375 0.960693359375
f 239/239 240/240 241/241 242/242
v -7.9 8.9 1.7
v -7.9 8.9 0
v -7.9 9.1 0
v -7.9 9.1 1.7
vt 0.100830078125 0.942138671875
vt 0.150634765625 0.942138671875
vt 0.150634765625 0.947998046875
vt 0.100830078125 0.947998046875
f 243/243 244/244 245/245 246/246
v -8.1 8.9 0
v -8.1 8.9 1.7
v -8.1 9.1 1.7
v -8.1 9.1 0
vt 0.151123046875 0.942138671875
vt 0.200927734375 0.942138671875
vt 0.200927734375 0.947998046875
vt 0.151123046875 0.947998046875
f 247/247 248/248 249/249 250/250
v -8.1 9.1 1.7
v -7.9 9.1 1.7
v -7.9 9.1 0
v -8.1 9.1 0
vt 0.481689453125 0.75537109375
vt 0.487548828125 0.75537109375
vt 0.487548828125 0.80517578125
vt 0.481689453125 0.80517578125
f 251/251 252/252 253/253 254/254
v -8.1 8.9 0
v -7.9 8.9 0
v -7.9 8.9 1.7
v -8.1 8.9 1.7
vt 0.488037109375 0.75537109375
vt 0.493896484375 0.75537109375
vt 0.493896484375 0.80517578125
vt 0.488037109375 0.80517578125
f 255/255 256/256 257/257 258/258
v -4.1 8.9 1.7
v -3.9 8.9 1.7
v -3.9 9.1 1.7
v -4.1 9.1 1.7
vt 0.226806640625 0.954833984375
vt 0.232666015625 0.954833984375
vt 0.232666015625 0.960693359375
vt 0.226806640625 0.960693359375
f 259/259 260/260 261/261 262/262
v -3.9 8.9 0
v -4.1 8.9 0
v -4.1 9.1 0
v -3.9 9.1 0
vt 0.233154296875 0.954833984375
vt 0.239013671875 0.954833984375
vt 0.239013671875 0.960693359375
vt 0.233154296875 0.960693359375
f 263/263 264/264 265/265 266/266
v -3.9 8.9 1.7
v -3.9 8.9 0
v -3.9 9.1 0
v -3.9 9.1 1.7
vt 0.201416015625 0.942138671875
vt 0.251220703125 0.942138671875
vt 0.251220703125 0.947998046875
vt 0.201416015625 0.947998046875
f 267/267 268/268 269/269 270/270
v -4.1 8.9 0
v -4.1 8.9 1.7
v -4.1 9.1 1.7
v -4.1 9.1 0
vt 0.251708984375 0.942138671875
vt 0.301513671875 0.942138671875
vt 0.301513671875 0.947998046875
vt 0.251708984375 0.947998046875
f 271/271 272/272 273/273 274/274
v -4.1 9.1 1.7
v -3.9 9.1 1.7
v -3.9 9.1 0
v -4.1 9.1 0
vt 0.494384765625 0.75537109375
vt 0.500244140625 0.75537109375
vt 0.500244140625 0.80517578125
vt 0.494384765625 0.80517578125
f 275/275 276/276 277/277 278/278
v -4.1 8.9 0
v -3.9 8.9 0
v -3.9 8.9 1.7
v -4.1 8.9 1.7
vt 0.500732421875 0.75537109375
vt 0.506591796875 0.75537109375
vt 0.506591796875 0.80517578125
vt 0.500732421875 0.80517578125
f 279/279 280/280 281/281 282/282
v -0.1 8.9 1.7
v 0.1 8.9 1.7
v 0.1 9.1 1.7
v -0.1 9.1 1.7
vt 0.239501953125 0.954833984375
vt 0.245361328125 0.954833984375
vt 0.245361328125 0.960693359375
vt 0.239501953125 0.960693359375
f 283/283 284/284 285/285 286/286
v 0.1 8.9 0
v -0.1 8.9 0
v -0.1 9.1 0
v 0.1 9.1 0
vt 0.245849609375 0.954833984375
vt 0.251708984375 0.954833984375
vt 0.251708984375 0.960693359375
vt 0.245849609375 0.960693359375
f 287/287 288/288 289/289 290/290
v 0.1 8.9 1.7
v 0.1 8.9 0
v 0.1 9.1 0
v 0.1 9.1 1.7
vt 0.302001953125 0.942138671875
vt 0.351806640625 0.942138671875
vt 0.351806640625 0.947998046875
vt 0.302001953125 0.947998046875
f 291/291 292/292 293/293 294/294
v -0.1 8.9 0
v -0.1 8.9 1.7
v -0.1 9.1 1.7
v -0.1 9.1 0
vt 0.352294921875 0.942138671875
vt 0.402099609375 0.942138671875
vt 0.402099609375 0.947998046875
vt 0.352294921875 0.947998046875
f 295/295 296/296 297/297 298/298
v -0.1 9.1 1.7
v 0.1 9.1 1.7
v 0.1 9.1 0
v -0.1 9.1 0
vt 0.507080078125 0.75537109375
vt 0.512939453125 0.75537109375
vt 0.512939453125 0.80517578125
vt 0.507080078125 0.80517578125
f 299/299 300/300 301/301 302/302
v -0.1 8.9 0
v 0.1 8.9 0
v 0.1 8.9 1.7
v -0.1 8.9 1.7
vt 0.513427734375 0.75537109375
vt 0.519287109375 0.75537109375
vt 0.519287109375 0.80517578125
vt 0.513427734375 0.80517578125
f 303/303 304/304 305/305 306/306
v 3.9 8.9 1.7
v 4.1 8.9 1.7
v 4.1 9.1 1.7
v 3.9 9.1 1.7
vt 0.252197265625 0.954833984375
vt 0.258056640625 0.954833984375
vt 0.258056640625 0.960693359375
vt 0.252197265625 0.960693359375
f 307/307 308/308 309/309 310/310
v 4.1 8.9 0
v 3.9 8.9 0
v 3.9 9.1 0
v 4.1 9.1 0
vt 0.258544921875 0.954833984375
vt 0.264404296875 0.954833984375
vt 0.264404296875 0.960693359375
vt 0.258544921875 0.960693359375
f 311/311 312/312 313/313 314/314
v 4.1 8.9 1.7
v 4.1 8.9 0
v 4.1 9.1 0
v 4.1 9.1 1.7
vt 0.402587890625 0.942138671875
vt 0.452392578125 0.942138671875
vt 0.452392578125 0.947998046875
vt 0.402587890625 0.947998046875
f 315/315 316/316 317/317 318/318
v 3.9 8.9 0
v 3.9 8.9 1.7
v 3.9 9.1 1.7
v 3.9 9.1 0
vt 0.452880859375 0.942138671875
vt 0.502685546875 0.942138671875
vt 0.502685546875 0.947998046875
vt 0.452880859375 0.947998046875
f 319/319 320/320 321/321 322/322
v 3.9 9.1 1.7
v 4.1 9.1 1.7
v 4.1 9.1 0
v 3.9 9.1 0
vt 0.519775390625 0.75537109375
vt 0.525634765625 0.75537109375
vt 0.525634765625 0.80517578125
vt 0.519775390625 0.80517578125
f 323/323 324/324 325/325 326/326
v 3.9 8.9 0
v 4.1 8.9 0
v 4.1 8.9 1.7
v 3.9 8.9 1.7
vt 0.526123046875 0.75537109375
vt 0.531982421875 0.75537109375
vt 0.531982421875 0.80517578125
vt 0.526123046875 0.80517578125
f 327/327 328/328 329/329 330/330
v 7.9 8.9 1.7
v 8.1 8.9 1.7
v 8.1 9.1 1.7
v 7.9 9.1 1.7
vt 0.264892578125 0.954833984375
vt 0.270751953125 0.954833984375
vt 0.270751953125 0.960693359375
vt 0.264892578125 0.960693359375
f 331/331 332/332 333/333 334/334
v 8.1 8.9 0
v 7.9 8.9 0
v 7.9 9.1 0
v 8.1 9.1 0
vt 0.271240234375 0.954833984375
vt 0.277099609375 0.954833984375
vt 0.277099609375 0.960693359375
vt 0.271240234375 0.960693359375
f 335/335 336/336 337/337 338/338
v 8.1 8.9 1.7
v 8.1 8.9 0
v 8.1 9.1 0
v 8.1 9.1 1.7
vt 0.503173828125 0.942138671875
vt 0.552978515625 0.942138671875
vt 0.552978515625 0.947998046875
vt 0.503173828125 0.947998046875
f 339/339 340/340 341/341 342/342
v 7.9 8.9 0
v 7.9 8.9 1.7
v 7.9 9.1 1.7
v 7.9 9.1 0
vt 0.553466796875 0.942138671875
vt 0.603271484375 0.942138671875
vt 0.603271484375 0.947998046875
vt 0.553466796875 0.947998046875
f 343/343 344/344 345/345 346/346
v 7.9 9.1 1.7
v 8.1 9.1 1.7
v 8.1 9.1 0
v 7.9 9.1 0
vt 0.532470703125 0.75537109375
vt 0.538330078125 0.75537109375
vt 0.538330078125 0.80517578125
vt 0.532470703125 0.80517578125
f 347/347 348/348 349/349 350/350
v 7.9 8.9 0
v 8.1 8.9 0
v 8.1 8.9 1.7
v 7.9 8.9 1.7
vt 0.538818359375 0.75537109375
vt 0.544677734375 0.75537109375
vt 0.544677734375 0.80517578125
vt 0.538818359375 0.80517578125
f 351/351 352/352 353/353 354/354
v 11.9 8.9 1.7
v 12.1 8.9 1.7
v 12.1 9.1 1.7
v 11.9 9.1 1.7
vt 0.277587890625 0.954833984375
vt 0.283447265625 0.954833984375
vt 0.283447265625 0.960693359375
vt 0.277587890625 0.960693359375
f 355/355 356/356 357/357 358/358
v 12.1 8.9 0
v 11.9 8.9 0
v 11.9 9.1 0
v 12.1 9.1 0
vt 0.283935546875 0.954833984375
vt 0.289794921875 0.954833984375
vt 0.289794921875 0.960693359375
vt 0.283935546875 0.960693359375
f 359/359 360/360 361/361 362/362
v 12.1 8.9 1.7
v 12.1 8.9 0
v 12.1 9.1 0
v 12.1 9.1 1.7
vt 0.603759765625 0.942138671875
vt 0.653564453125 0.942138671875
vt 0.653564453125 0.947998046875
vt 0.603759765625 0.947998046875
f 363/363 364/364 365/365 366/366
v 11.9 8.9 0
v 11.9 8.9 1.7
v 11.9 9.1 1.7
v 11.9 9.1 0
vt 0.654052734375 0.942138671875
vt 0.703857421875 0.942138671875
vt 0.703857421875 0.947998046875
vt 0.654052734375 0.947998046875
f 367/367 368/368 369/369 370/370
v 11.9 9.1 1.7
v 12.1 9.1 1.7
v 12.1 9.1 0
v 11.9 9.1 0
vt 0.545166015625 0.75537109375
vt 0.551025390625 0.75537109375
vt 0.551025390625 0.80517578125
vt 0.545166015625 0.80517578125
f 371/371 372/372 373/373 374/374
v 11.9 8.9 0
v 12.1 8.9 0
v 12.1 8.9 1.7
v 11.9 8.9 1.7
vt 0.551513671875 0.75537109375
vt 0.557373046875 0.75537109375
vt 0.557373046875 0.80517578125
vt 0.551513671875 0.80517578125
f 375/375 376/376 377/377 378/378
v -12.1 -9.1 1.7
v -11.9 -9.1 1.7
v -11.9 -8.9 1.7
v -12.1 -8.9 1.7
vt 0.290283203125 0.954833984375
vt 0.296142578125 0.954833984375
vt 0.296142578125 0.960693359375
vt 0.290283203125 0.960693359375
f 379/379 380/380 381/381 382/382
v -11.9 -9.1 0
v -12.1 -9.1 0
v -12.1 -8.9 0
v -11.9 -8.9 0
vt 0.296630859375 0.954833984375
vt 0.302490234375 0.954833984375
vt 0.302490234375 0.960693359375
vt 0.296630859375 0.960693359375
f 383/383 384/384 385/385 386/386
v -11.9 -9.1 1.7
v -11.9 -9.1 0
v -11.9 -8.9 0
v -11.9 -8.9 1.7
vt 0.704345703125 0.942138671875
vt 0.754150390625 0.942138671875
vt 0.754150390625 0.947998046875
vt 0.704345703125 0.947998046875
f 387/387 388/388 389/389 390/390
v -12.1 -9.1 0
v -12.1 -9.1 1.7
v -12.1 -8.9 1.7
v -12.1 -8.9 0
vt 0.754638671875 0.942138671875
vt 0.804443359375 0.942138671875
vt 0.804443359375 0.947998046875
vt 0.754638671875 0.947998046875
f 391/391 392/392 393/393 394/394
v -12.1 -8.9 1.7
v -11.9 -8.9 1.7
v -11.9 -8.9 0
v -12.1 -8.9 0
vt 0.557861328125 0.75537109375
vt 0.563720703125 0.75537109375
vt 0.563720703125 0.80517578125
vt 0.557861328125 0.80517578125
f 395/395 396/396 397/397 398/398
v -12.1 -9.1 0
v -11.9 -9.1 0
v -11.9 -9.1 1.7
v -12.1 -9.1 1.7
vt 0.564208984375 0.75537109375
vt 0.570068359375 0.75537109375
vt 0.570068359375 0.80517578125
vt 0.564208984375 0.80517578125
f 399/399 400/400 401/401 402/402
v -12.1 -5.1 1.7
v -11.9 -5.1 1.7
v -11.9 -4.9 1.7
v -12.1 -4.9 1.7
vt 0.302978515625 0.954833984375
vt 0.308837890625 0.954833984375
vt 0.308837890625 0.960693359375
vt 0.302978515625 0.960693359375
f 403/403 404/404 405/405 406/406
v -11.9 -5.1 0
v -12.1 -5.1 0
v -12.1 -4.9 0
v -11.9 -4.9 0
vt 0.309326171875 0.954833984375
vt 0.315185546875 0.954833984375
vt 0.315185546875 0.960693359375
vt 0.309326171875 0.960693359375
f 407/407 408/408 409/409 410/410
v -11.9 -5.1 1.7
v -11.9 -5.1 0
v -11.9 -4.9 0
v -11.9 -4.9 1.7
vt 0.804931640625 0.942138671875
vt 0.854736328125 0.942138671875
vt 0.854736328125 0.947998046875
vt 0.804931640625 0.947998046875
f 411/411 412/412 413/413 414/414
v -12.1 -5.1 0
v -12.1 -5.1 1.7
v -12.1 -4.9 1.7
v -12.1 -4.9 0
vt 0.855224609375 0.942138671875
vt 0.905029296875 0.942138671875
vt 0.905029296875 0.947998046875
vt 0.855224609375 0.947998046875
f 415/415 416/416 417/417 418/418
v -12.1 -4.9 1.7
v -11.9 -4.9 1.7
v -11.9 -4.9 0
v -12.1 -4.9 0
vt 0.570556640625 0.75537109375
vt 0.576416015625 0.75537109375
vt 0.576416015625 0.80517578125
vt 0.570556640625 0.80517578125
f 419/419 420/420 421/421 422/422
v -12.1 -5.1 0
v -11.9 -5.1 0
v -11.9 -5.1 1.7
v -12.1 -5.1 1.7
vt 0.576904296875 0.75537109375
vt 0.582763671875 0.75537109375
vt 0.582763671875 0.80517578125
vt 0.576904296875 0.80517578125
f 423/423 424/424 425/425 426/426
v -12.1 -1.1 1.7
v -11.9 -1.1 1.7
v -11.9 -0.9 1.7
v -12.1 -0.9 1.7
vt 0.315673828125 0.954833984375
vt 0.321533203125 0.954833984375
vt 0.321533203125 0.960693359375
vt 0.315673828125 0.960693359375
f 427/427 428/428 429/429 430/430
v -11.9 -1.1 0
v -12.1 -1.1 0
v -12.1 -0.9 0
v -11.9 -0.9 0
vt 0.322021484375 0.954833984375
vt 0.327880859375 0.954833984375
vt 0.327880859375 0.960693359375
vt 0.322021484375 0.960693359375
f 431/431 432/432 433/433 434/434
v -11.9 -1.1 1.7
v -11.9 -1.1 0
v -11.9 -0.9 0
v -11.9 -0.9 1.7
vt 0.905517578125 0.942138671875
vt 0.955322265625 0.942138671875
vt 0.955322265625 0.947998046875
vt 0.905517578125 0.947998046875
f 435/435 436/436 437/437 438/438
v -12.1 -1.1 0
v -12.1 -1.1 1.7
v -12.1 -0.9 1.7
v -12.1 -0.9 0
vt 0.000244140625 0.948486328125
vt 0.050048828125 0.948486328125
vt 0.050048828125 0.954345703125
vt 0.000244140625 0.954345703125
f 439/439 440/440 441/441 442/442
v -12.1 -0.9 1.7
v -11.9 -0.9 1.7
v -11.9 -0.9 0
v -12.1 -0.9 0
vt 0.583251953125 0.75537109375
vt 0.589111328125 0.75537109375
vt 0.589111328125 0.80517578125
vt 0.583251953125 0.80517578125
f 443/443 444/444 445/445 446/446
v -12.1 -1.1 0
v -11.9 -1.1 0
v -11.9 -1.1 1.7
v -12.1 -1.1 1.7
vt 0.589599609375 0.75537109375
vt 0.595458984375 0.75537109375
vt 0.595458984375 0.80517578125
vt 0.589599609375 0.80517578125
f 447/447 448/448 449/449 450/450
v -12.1 2.9 1.7
v -11.9 2.9 1.7
v -11.9 3.1 1.7
v -12.1 3.1 1.7
vt 0.328369140625 0.954833984375
vt 0.334228515625 0.954833984375
vt 0.334228515625 0.960693359375
vt 0.328369140625 0.960693359375
f 451/451 452/452 453/453 454/454
v -11.9 2.9 0
v -12.1 2.9 0
v -12.1 3.1 0
v -11.9 3.1 0
vt 0.334716796875 0.954833984375
vt 0.340576171875 0.954833984375
vt 0.340576171875 0.960693359375
vt 0.334716796875 0.960693359375
f 455/455 456/456 457/457 458/458
v -11.9 2.9 1.7
v -11.9 2.9 0
v -11.9 3.1 0
v -11.9 3.1 1.7
vt 0.050537109375 0.948486328125
vt 0.100341796875 0.948486328125
vt 0.100341796875 0.954345703125
vt 0.050537109375 0.954345703125
f 459/459 460/460 461/461 462/462
v -12.1 2.9 0
v -12.1 2.9 1.7
v -12.1 3.1 1.7
v -12.1 3.1 0
vt 0.100830078125 0.948486328125
vt 0.150634765625 0.948486328125
vt 0.150634765625 0.954345703125
vt 0.100830078125 0.954345703125
f 463/463 464/464 465/465 466/466
v -12.1 3.1 1.7
v -11.9 3.1 1.7
v -11.9 3.1 0
v -12.1 3.1 0
vt 0.595947265625 0.75537109375
vt 0.601806640625 0.75537109375
vt 0.601806640625 0.80517578125
vt 0.595947265625 0.80517578125
f 467/467 468/468 469/469 470/470
v -12.1 2.9 0
v -11.9 2.9 0
v -11.9 2.9 1.7
v -12.1 2.9 1.7
vt 0.602294921875 0.75537109375
vt 0.608154296875 0.75537109375
vt 0.608154296875 0.80517578125
vt 0.602294921875 0.80517578125
f 471/471 472/472 473/473 474/474
v -12.1 6.9 1.7
v -11.9 6.9 1.7
v -11.9 7.1 1.7
v -12.1 7.1 1.7
vt 0.341064453125 0.954833984375
vt 0.346923828125 0.954833984375
vt 0.346923828125 0.960693359375
vt 0.341064453125 0.960693359375
f 475/475 476/476 477/477 478/478
v -11.9 6.9 0
v -12.1 6.9 0
v -12.1 7.1 0
v -11.9 7.1 0
vt 0.347412109375 0.954833984375
vt 0.353271484375 0.954833984375
vt 0.353271484375 0.960693359375
vt 0.347412109375 0.960693359375
f 479/479 480/480 481/481 482/482
v -11.9 6.9 1.7
v -11.9 6.9 0
v -11.9 7.1 0
v -11.9 7.1 1.7
vt 0.151123046875 0.948486328125
vt 0.200927734375 0.948486328125
vt 0.200927734375 0.954345703125
vt 0.151123046875 0.954345703125
f 483/483 484/484 485/485 486/486
v -12.1 6.9 0
v -12.1 6.9 1.7
v -12.1 7.1 1.7
v -12.1 7.1 0
vt 0.201416015625 0.948486328125
vt 0.251220703125 0.948486328125
vt 0.251220703125 0.954345703125
vt 0.201416015625 0.954345703125
f 487/487 488/488 489/489 490/490
v -12.1 7.1 1.7
v -11.9 7.1 1.7
v -11.9 7.1 0
v -12.1 7.1 0
vt 0.608642578125 0.75537109375
vt 0.614501953125 0.75537109375
vt 0.614501953125 0.80517578125
vt 0.608642578125 0.80517578125
f 491/491 492/492 493/493 494/494
v -12.1 6.9 0
v -11.9 6.9 0
v -11.9 6.9 1.7
v -12.1 6.9 1.7
vt 0.614990234375 0.75537109375
vt 0.620849609375 0.75537109375
vt 0.620849609375 0.80517578125
vt 0.614990234375 0.80517578125
f 495/495 496/496 497/497 498/498
v 11.9 -9.1 1.7
v 12.1 -9.1 1.7
v 12.1 -8.9 1.7
v 11.9 -8.9 1.7
vt 0.353759765625 0.954833984375
vt 0.359619140625 0.954833984375
vt 0.359619140625 0.960693359375
vt 0.353759765625 0.960693359375
f 499/499 500/500 501/501 502/502
v 12.1 -9.1 0
v 11.9 -9.1 0
v 11.9 -8.9 0
v 12.1 -8.9 0
vt 0.360107421875 0.954833984375
vt 0.365966796875 0.954833984375
vt 0.365966796875 0.960693359375
vt 0.360107421875 0.960693359375
f 503/503 504/504 505/505 506/506
v 12.1 -9.1 1.7
v 12.1 -9.1 0
v 12.1 -8.9 0
v 12.1 -8.9 1.7
vt 0.251708984375 0.948486328125
vt 0.301513671875 0.948486328125
vt 0.301513671875 0.954345703125
vt 0.251708984375 0.954345703125
f 507/507 508/508 509/509 510/510
v 11.9 -9.1 0
v 11.9 -9.1 1.7
v 11.9 -8.9 1.7
v 11.9 -8.9 0
vt 0.302001953125 0.948486328125
vt 0.351806640625 0.948486328125
vt 0.351806640625 0.954345703125
vt 0.302001953125 0.954345703125
f 511/511 512/512 513/513 514/514
v 11.9 -8.9 1.7
v 12.1 -8.9 1.7
v 12.1 -8.9 0
v 11.9 -8.9 0
vt 0.621337890625 0.75537109375
vt 0.627197265625 0.75537109375
vt 0.627197265625 0.80517578125
vt 0.621337890625 0.80517578125
f 515/515 516/516 517/517 518/518
v 11.9 -9.1 0
v 12.1 -9.1 0
v 12.1 -9.1 1.7
v 11.9 -9.1 1.7
vt 0.627685546875 0.75537109375
vt 0.633544921875 0.75537109375
vt 0.633544921875 0.80517578125
vt 0.627685546875 0.80517578125
f 519/519 520/520 521/521 522/522
v 11.9 -5.1 1.7
v 12.1 -5.1 1.7
v 12.1 -4.9 1.7
v 11.9 -4.9 1.7
vt 0.366455078125 0.954833984375
vt 0.372314453125 0.954833984375
vt 0.372314453125 0.960693359375
vt 0.366455078125 0.960693359375
f 523/523 524/524 525/525 526/526
v 12.1 -5.1 0
v 11.9 -5.1 0
v 11.9 -4.9 0
v 12.1 -4.9 0
vt 0.372802734375 0.954833984375
vt 0.378662109375 0.954833984375
vt 0.378662109375 0.960693359375
vt 0.372802734375 0.960693359375
f 527/527 528/528 529/529 530/530
v 12.1 -5.1 1.7
v 12.1 -5.1 0
v 12.1 -4.9 0
v 12.1 -4.9 1.7
vt 0.352294921875 0.948486328125
vt 0.402099609375 0.948486328125
vt 0.402099609375 0.954345703125
vt 0.352294921875 0.954345703125
f 531/531 532/532 533/533 534/534
v 11.9 -5.1 0
v 11.9 -5.1 1.7
v 11.9 -4.9 1.7
v 11.9 -4.9 0
vt 0.402587890625 0.948486328125
vt 0.452392578125 0.948486328125
vt 0.452392578125 0.954345703125
vt 0.402587890625 0.954345703125
f 535/535 536/536 537/537 538/538
v 11.9 -4.9 1.7
v 12.1 -4.9 1.7
v 12.1 -4.9 0
v 11.9 -4.9 0
vt 0.634033203125 0.75537109375
vt 0.639892578125 0.75537109375
vt 0.639892578125 0.80517578125
vt 0.634033203125 0.80517578125
f 539/539 540/540 541/541 542/542
v 11.9 -5.1 0
v 12.1 -5.1 0
v 12.1 -5.1 1.7
v 11.9 -5.1 1.7
vt 0.640380859375 0.75537109375
vt 0.646240234375 0.75537109375
vt 0.646240234375 0.80517578125
vt 0.640380859375 0.80517578125
f 543/543 544/544 545/545 546/546
v 11.9 -1.1 1.7
v 12.1 -1.1 1.7
v 12.1 -0.9 1.7
v 11.9 -0.9 1.7
vt 0.379150390625 0.954833984375
vt 0.385009765625 0.954833984375
vt 0.385009765625 0.960693359375
vt 0.379150390625 0.960693359375
f 547/547 548/548 549/549 550/550
v 12.1 -1.1 0
v 11.9 -1.1 0
v 11.9 -0.9 0
v 12.1 -0.9 0
vt 0.385498046875 0.954833984375
vt 0.391357421875 0.954833984375
vt 0.391357421875 0.960693359375
vt 0.385498046875 0.960693359375
f 551/551 552/552 553/553 554/554
v 12.1 -1.1 1.7
v 12.1 -1.1 0
v 12.1 -0.9 0
v 12.1 -0.9 1.7
vt 0.452880859375 0.948486328125
vt 0.502685546875 0.948486328125
vt 0.502685546875 0.954345703125
vt 0.452880859375 0.954345703125
f 555/555 556/556 557/557 558/558
v 11.9 -1.1 0
v 11.9 -1.1 1.7
v 11.9 -0.9 1.7
v 11.9 -0.9 0
vt 0.503173828125 0.948486328125
vt 0.552978515625 0.948486328125
vt 0.552978515625 0.954345703125
vt 0.503173828125 0.954345703125
f 559/559 560/560 561/561 562/562
v 11.9 -0.9 1.7
v 12.1 -0.9 1.7
v 12.1 -0.9 0
v 11.9 -0.9 0
vt 0.646728515625 0.75537109375
vt 0.652587890625 0.75537109375
vt 0.652587890625 0.80517578125
vt 0.646728515625 0.80517578125
f 563/563 564/564 565/565 566/566
v 11.9 -1.1 0
v 12.1 -1.1 0
v 12.1 -1.1 1.7
v 11.9 -1.1 1.7
vt 0.653076171875 0.75537109375
vt 0.658935546875 0.75537109375
vt 0.658935546875 0.80517578125
vt 0.653076171875 0.80517578125
f 567/567 568/568 569/569 570/570
v 11.9 2.9 1.7
v 12.1 2.9 1.7
v 12.1 3.1 1.7
v 11.9 3.1 1.7
vt 0.391845703125 0.954833984375
vt 0.397705078125 0.954833984375
vt 0.397705078125 0.960693359375
vt 0.391845703125 0.960693359375
f 571/571 572/572 573/573 574/574
v 12.1 2.9 0
v 11.9 2.9 0
v 11.9 3.1 0
v 12.1 3.1 0
vt 0.398193359375 0.954833984375
vt 0.404052734375 0.954833984375
vt 0.404052734375 0.960693359375
vt 0.398193359375 0.960693359375
f 575/575 576/576 577/577 578/578
v 12.1 2.9 1.7
v 12.1 2.9 0
v 12.1 3.1 0
v 12.1 3.1 1.7
vt 0.553466796875 0.948486328125
vt 0.603271484375 0.948486328125
vt 0.603271484375 0.954345703125
vt 0.553466796875 0.954345703125
f 579/579 580/580 581/581 582/582
v 11.9 2.9 0
v 11.9 2.9 1.7
v 11.9 3.1 1.7
v 11.9 3.1 0
vt 0.603759765625 0.948486328125
vt 0.653564453125 0.948486328125
vt 0.653564453125 0.954345703125
vt 0.603759765625 0.954345703125
f 583/583 584/584 585/585 586/586
v 11.9 3.1 1.7
v 12.1 3.1 1.7
v 12.1 3.1 0
v 11.9 3.1 0
vt 0.659423828125 0.75537109375
vt 0.665283203125 0.75537109375
vt 0.665283203125 0.80517578125
vt 0.659423828125 0.80517578125
f 587/587 588/588 589/589 590/590
v 11.9 2.9 0
v 12.1 2.9 0
v 12.1 2.9 1.7
v 11.9 2.9 1.7
vt 0.665771484375 0.75537109375
vt 0.671630859375 0.75537109375
vt 0.671630859375 0.80517578125
vt 0.665771484375 0.80517578125
f 591/591 592/592 593/593 594/594
v 11.9 6.9 1.7
v 12.1 6.9 1.7
v 12.1 7.1 1.7
v 11.9 7.1 1.7
vt 0.404541015625 0.954833984375
vt 0.410400390625 0.954833984375
vt 0.410400390625 0.960693359375
vt 0.404541015625 0.960693359375
f 595/595 596/596 597/597 598/598
v 12.1 6.9 0
v 11.9 6.9 0
v 11.9 7.1 0
v 12.1 7.1 0
vt 0.410888671875 0.954833984375
vt 0.416748046875 0.954833984375
vt 0.416748046875 0.960693359375
vt 0.410888671875 0.960693359375
f 599/599 600/600 601/601 602/602
v 12.1 6.9 1.7
v 12.1 6.9 0
v 12.1 7.1 0
v 12.1 7.1 1.7
vt 0.654052734375 0.948486328125
vt 0.703857421875 0.948486328125
vt 0.703857421875 0.954345703125
vt 0.654052734375 0.954345703125
f 603/603 604/604 605/605 606/606
v 11.9 6.9 0
v 11.9 6.9 1.7
v 11.9 7.1 1.7
v 11.9 7.1 0
vt 0.704345703125 0.948486328125
vt 0.754150390625 0.948486328125
vt 0.754150390625 0.954345703125
vt 0.704345703125 0.954345703125
f 607/607 608/608 609/609 610/610
v 11.9 7.1 1.7
v 12.1 7.1 1.7
v 12.1 7.1 0
v 11.9 7.1 0
vt 0.672119140625 0.75537109375
vt 0.677978515625 0.75537109375
vt 0.677978515625 0.80517578125
vt 0.672119140625 0.80517578125
f 611/611 612/612 613/613 614/614
v 11.9 6.9 0
v 12.1 6.9 0
v 12.1 6.9 1.7
v 11.9 6.9 1.7
vt 0.678466796875 0.75537109375
vt 0.684326171875 0.75537109375
vt 0.684326171875 0.80517578125
vt 0.678466796875 0.80517578125
f 615/615 616/616 617/617 618/618
v -7.1 -9.1 1.7
v -6.9 -9.1 1.7
v -6.9 -8.9 1.7
v -7.1 -8.9 1.7
vt 0.417236328125 0.954833984375
vt 0.423095703125 0.954833984375
vt 0.423095703125 0.960693359375
vt 0.417236328125 0.960693359375
f 619/619 620/620 621/621 622/622
v -6.9 -9.1 0
v -7.1 -9.1 0
v -7.1 -8.9 0
v -6.9 -8.9 0
vt 0.423583984375 0.954833984375
vt 0.429443359375 0.954833984375
vt 0.429443359375 0.960693359375
vt 0.423583984375 0.960693359375
f 623/623 624/624 625/625 626/626
v -6.9 -9.1 1.7
v -6.9 -9.1 0
v -6.9 -8.9 0
v -6.9 -8.9 1.7
vt 0.754638671875 0.948486328125
vt 0.804443359375 0.948486328125
vt 0.804443359375 0.954345703125
vt 0.754638671875 0.954345703125
f 627/627 628/628 629/629 630/630
v -7.1 -9.1 0
v -7.1 -9.1 1.7
v -7.1 -8.9 1.7
v -7.1 -8.9 0
vt 0.804931640625 0.948486328125
vt 0.854736328125 0.948486328125
vt 0.854736328125 0.954345703125
vt 0.804931640625 0.954345703125
f 631/631 632/632 633/633 634/634
v -7.1 -8.9 1.7
v -6.9 -8.9 1.7
v -6.9 -8.9 0
v -7.1 -8.9 0
vt 0.684814453125 0.75537109375
vt 0.690673828125 0.75537109375
vt 0.690673828125 0.80517578125
vt 0.684814453125 0.80517578125
f 635/635 636/636 637/637 638/638
v -7.1 -9.1 0
v -6.9 -9.1 0
v -6.9 -9.1 1.7
v -7.1 -9.1 1.7
vt 0.691162109375 0.75537109375
vt 0.697021484375 0.75537109375
vt 0.697021484375 0.80517578125
vt 0.691162109375 0.80517578125
f 639/639 640/640 641/641 642/642
v -2.1 -9.1 1.7
v -1.9 -9.1 1.7
v -1.9 -8.9 1.7
v -2.1 -8.9 1.7
vt 0.429931640625 0.954833984375
vt 0.435791015625 0.954833984375
vt 0.435791015625 0.960693359375
vt 0.429931640625 0.960693359375
f 643/643 644/644 645/645 646/646
v -1.9 -9.1 0
v -2.1 -9.1 0
v -2.1 -8.9 0
v -1.9 -8.9 0
vt 0.436279296875 0.954833984375
vt 0.442138671875 0.954833984375
vt 0.442138671875 0.960693359375
vt 0.436279296875 0.960693359375
f 647/647 648/648 649/649 650/650
v -1.9 -9.1 1.7
v -1.9 -9.1 0
v -1.9 -8.9 0
v -1.9 -8.9 1.7
vt 0.855224609375 0.948486328125
vt 0.905029296875 0.948486328125
vt 0.905029296875 0.954345703125
vt 0.855224609375 0.954345703125
f 651/651 652/652 653/653 654/654
v -2.1 -9.1 0
v -2.1 -9.1 1.7
v -2.1 -8.9 1.7
v -2.1 -8.9 0
vt 0.905517578125 0.948486328125
vt 0.955322265625 0.948486328125
vt 0.955322265625 0.954345703125
vt 0.905517578125 0.954345703125
f 655/655 656/656 657/657 658/658
v -2.1 -8.9 1.7
v -1.9 -8.9 1.7
v -1.9 -8.9 0
v -2.1 -8.9 0
vt 0.697509765625 0.75537109375
vt 0.703369140625 0.75537109375
vt 0.703369140625 0.80517578125
vt 0.697509765625 0.80517578125
f 659/659 660/660 661/661 662/662
v -2.1 -9.1 0
v -1.9 -9.1 0
v -1.9 -9.1 1.7
v -2.1 -9.1 1.7
vt 0.703857421875 0.75537109375
vt 0.709716796875 0.75537109375
vt 0.709716796875 0.80517578125
vt 0.703857421875 0.80517578125
f 663/663 664/664 665/665 666/666
v 1.9 -9.1 1.7
v 2.1 -9.1 1.7
v 2.1 -8.9 1.7
v 1.9 -8.9 1.7
vt 0.442626953125 0.954833984375
vt 0.448486328125 0.954833984375
vt 0.448486328125 0.960693359375
vt 0.442626953125 0.960693359375
f 667/667 668/668 669/669 670/670
v 2.1 -9.1 0
v 1.9 -9.1 0
v 1.9 -8.9 0
v 2.1 -8.9 0
vt 0.448974609375 0.954833984375
vt 0.454833984375 0.954833984375
vt 0.454833984375 0.960693359375
vt 0.448974609375 0.960693359375
f 671/671 672/672 673/673 674/674
v 2.1 -9.1 1.7
v 2.1 -9.1 0
v 2.1 -8.9 0
v 2.1 -8.9 1.7
vt 0.000244140625 0.954833984375
vt 0.050048828125 0.954833984375
vt 0.050048828125 0.960693359375
vt 0.000244140625 0.960693359375
f 675/675 676/676 677/677 678/678
v 1.9 -9.1 0
v 1.9 -9.1 1.7
v 1.9 -8.9 1.7
v 1.9 -8.9 0
vt 0.050537109375 0.954833984375
vt 0.100341796875 0.954833984375
vt 0.100341796875 0.960693359375
vt 0.050537109375 0.960693359375
f 679/679 680/680 681/681 682/682
v 1.9 -8.9 1.7
v 2.1 -8.9 1.7
v 2.1 -8.9 0
v 1.9 -8.9 0
vt 0.710205078125 0.75537109375
vt 0.716064453125 0.75537109375
vt 0.716064453125 0.80517578125
vt 0.710205078125 0.80517578125
f 683/683 684/684 685/685 686/686
v 1.9 -9.1 0
v 2.1 -9.1 0
v 2.1 -9.1 1.7
v 1.9 -9.1 1.7
vt 0.716552734375 0.75537109375
vt 0.722412109375 0.75537109375
vt 0.722412109375 0.80517578125
vt 0.716552734375 0.80517578125
f 687/687 688/688 689/689 690/690
v 6.9 -9.1 1.7
v 7.1 -9.1 1.7
v 7.1 -8.9 1.7
v 6.9 -8.9 1.7
vt 0.455322265625 0.954833984375
vt 0.461181640625 0.954833984375
vt 0.461181640625 0.960693359375
vt 0.455322265625 0.960693359375
f 691/691 692/692 693/693 694/694
v 7.1 -9.1 0
v 6.9 -9.1 0
v 6.9 -8.9 0
v 7.1 -8.9 0
vt 0.461669921875 0.954833984375
vt 0.467529296875 0.954833984375
vt 0.467529296875 0.960693359375
vt 0.461669921875 0.960693359375
f 695/695 696/696 697/697 698/698
v 7.1 -9.1 1.7
v 7.1 -9.1 0
v 7.1 -8.9 0
v 7.1 -8.9 1.7
vt 0.100830078125 0.954833984375
vt 0.150634765625 0.954833984375
vt 0.150634765625 0.960693359375
vt 0.100830078125 0.960693359375
f 699/699 700/700 701/701 702/702
v 6.9 -9.1 0
v 6.9 -9.1 1.7
v 6.9 -8.9 1.7
v 6.9 -8.9 0
vt 0.151123046875 0.954833984375
vt 0.200927734375 0.954833984375
vt 0.200927734375 0.960693359375
vt 0.151123046875 0.960693359375
f 703/703 704/704 705/705 706/706
v 6.9 -8.9 1.7
v 7.1 -8.9 1.7
v 7.1 -8.9 0
v 6.9 -8.9 0
vt 0.722900390625 0.75537109375
vt 0.728759765625 0.75537109375
vt 0.728759765625 0.80517578125
vt 0.722900390625 0.80517578125
f 707/707 708/708 709/709 710/710
v 6.9 -9.1 0
v 7.1 -9.1 0
v 7.1 -9.1 1.7
v 6.9 -9.1 1.7
vt 0.729248046875 0.75537109375
vt 0.735107421875 0.75537109375
vt 0.735107421875 0.80517578125
vt 0.729248046875 0.80517578125
f 711/711 712/712 713/713 714/714
usemtl glyph_6a4b2f
v -8.23 4.27 2.4
v -7.77 4.27 2.4
v -7.77 4.73 2.4
v -8.23 4.73 2.4
vt 0.72802734375 0.921142578125
vt 0.741455078125 0.921142578125
vt 0.741455078125 0.9345703125
vt 0.72802734375 0.9345703125
f 715/715 716/716 717/717 718/718
v -7.77 4.27 0
v -8.23 4.27 0
v -8.23 4.73 0
v -7.77 4.73 0
vt 0.741943359375 0.921142578125
vt 0.75537109375 0.921142578125
vt 0.75537109375 0.9345703125
vt 0.741943359375 0.9345703125
f 719/719 720/720 721/721 722/722
v -7.77 4.27 2.4
v -7.77 4.27 0
v -7.77 4.73 0
v -7.77 4.73 2.4
vt 0.3046875 0.921142578125
vt 0.374755859375 0.921142578125
vt 0.374755859375 0.9345703125
vt 0.3046875 0.9345703125
f 723/723 724/724 725/725 726/726
v -8.23 4.27 0
v -8.23 4.27 2.4
v -8.23 4.73 2.4
v -8.23 4.73 0
vt 0.375244140625 0.921142578125
vt 0.4453125 0.921142578125
vt 0.4453125 0.9345703125
vt 0.375244140625 0.9345703125
f 727/727 728/728 729/729 730/730
v -8.23 4.73 2.4
v -7.77 4.73 2.4
v -7.77 4.73 0
v -8.23 4.73 0
vt 0.847412109375 0.64111328125
vt 0.86083984375 0.64111328125
vt 0.86083984375 0.711181640625
vt 0.847412109375 0.711181640625
f 731/731 732/732 733/733 734/734
v -8.23 4.27 0
v -7.77 4.27 0
v -7.77 4.27 2.4
v -8.23 4.27 2.4
vt 0.861328125 0.64111328125
vt 0.874755859375 0.64111328125
vt 0.874755859375 0.711181640625
vt 0.861328125 0.711181640625
f 735/735 736/736 737/737 738/738
usemtl glyph_3f7d3a
v -9.7 2.8 2
v -6.3 2.8 2
v -8 4.5 5.5
vt 0.000244140625 0.52685546875
vt 0.099609375 0.52685546875
vt 0.000244140625 0.640625
f 739/739 740/740 741/741
v -6.3 2.8 2
v -6.3 6.2 2
v -8 4.5 5.5
vt 0.10009765625 0.52685546875
vt 0.199462890625 0.52685546875
vt 0.10009765625 0.640625
f 742/742 743/743 744/744
v -6.3 6.2 2
v -9.7 6.2 2
v -8 4.5 5.5
vt 0.199951171875 0.52685546875
vt 0.29931640625 0.52685546875
vt 0.199951171875 0.640625
f 745/745 746/746 747/747
v -9.7 6.2 2
v -9.7 2.8 2
v -8 4.5 5.5
vt 0.2998046875 0.52685546875
vt 0.399169921875 0.52685546875
vt 0.2998046875 0.640625
f 748/748 749/749 750/750
usemtl glyph_6a4b2f
v 7.77 4.569999999999999 2.4
v 8.23 4.569999999999999 2.4
v 8.23 5.03 2.4
v 7.77 5.03 2.4
vt 0.755859375 0.921142578125
vt 0.769287109375 0.921142578125
vt 0.769287109375 0.9345703125
vt 0.755859375 0.9345703125
f 751/751 752/752 753/753 754/754
v 8.23 4.569999999999999 0
v 7.77 4.569999999999999 0
v 7.77 5.03 0
v 8.23 5.03 0
vt 0.769775390625 0.921142578125
vt 0.783203125 0.921142578125
vt 0.783203125 0.9345703125
vt 0.769775390625 0.9345703125
f 755/755 756/756 757/757 758/758
v 8.23 4.569999999999999 2.4
v 8.23 4.569999999999999 0
v 8.23 5.03 0
v 8.23 5.03 2.4
vt 0.44580078125 0.921142578125
vt 0.515869140625 0.921142578125
vt 0.515869140625 0.9345703125
vt 0.44580078125 0.9345703125
f 759/759 760/760 761/761 762/762
v 7.77 4.569999999999999 0
v 7.77 4.569999999999999 2.4
v 7.77 5.03 2.4
v 7.77 5.03 0
vt 0.516357421875 0.921142578125
vt 0.58642578125 0.921142578125
vt 0.58642578125 0.9345703125
vt 0.516357421875 0.9345703125
f 763/763 764/764 765/765 766/766
v 7.77 5.03 2.4
v 8.23 5.03 2.4
v 8.23 5.03 0
v 7.77 5.03 0
vt 0.875244140625 0.64111328125
vt 0.888671875 0.64111328125
vt 0.888671875 0.711181640625
vt 0.875244140625 0.711181640625
f 767/767 768/768 769/769 770/770
v 7.77 4.569999999999999 0
v 8.23 4.569999999999999 0
v 8.23 4.569999999999999 2.4
v 7.77 4.569999999999999 2.4
vt 0.88916015625 0.64111328125
vt 0.902587890625 0.64111328125
vt 0.902587890625 0.711181640625
vt 0.88916015625 0.711181640625
f 771/771 772/772 773/773 774/774
usemtl glyph_3f7d3a
v 6.3 3.0999999999999996 2
v 9.7 3.0999999999999996 2
v 8 4.8 5.5
vt 0.399658203125 0.52685546875
vt 0.4990234375 0.52685546875
vt 0.399658203125 0.640625
f 775/775 776/776 777/777
v 9.7 3.0999999999999996 2
v 9.7 6.5 2
v 8 4.8 5.5
vt 0.49951171875 0.52685546875
vt 0.598876953125 0.52685546875
vt 0.49951171875 0.640625
f 778/778 779/779 780/780
v 9.7 6.5 2
v 6.3 6.5 2
v 8 4.8 5.5
vt 0.599365234375 0.52685546875
vt 0.69873046875 0.52685546875
vt 0.599365234375 0.640625
f 781/781 782/782 783/783
v 6.3 6.5 2
v 6.3 3.0999999999999996 2
v 8 4.8 5.5
vt 0.69921875 0.52685546875
vt 0.798583984375 0.52685546875
vt 0.69921875 0.640625
f 784/784 785/785 786/786
usemtl glyph_6a4b2f
v -8.23 -4.73 2.4
v -7.77 -4.73 2.4
v -7.77 -4.27 2.4
v -8.23 -4.27 2.4
vt 0.78369140625 0.921142578125
vt 0.797119140625 0.921142578125
vt 0.797119140625 0.9345703125
vt 0.78369140625 0.9345703125
f 787/787 788/788 789/789 790/790
v -7.77 -4.73 0
v -8.23 -4.73 0
v -8.23 -4.27 0
v -7.77 -4.27 0
vt 0.797607421875 0.921142578125
vt 0.81103515625 0.921142578125
vt 0.81103515625 0.9345703125
vt 0.797607421875 0.9345703125
f 791/791 792/792 793/793 794/794
v -7.77 -4.73 2.4
v -7.77 -4.73 0
v -7.77 -4.27 0
v -7.77 -4.27 2.4
vt 0.5869140625 0.921142578125
vt 0.656982421875 0.921142578125
vt 0.656982421875 0.9345703125
vt 0.5869140625 0.9345703125
f 795/795 796/796 797/797 798/798
v -8.23 -4.73 0
v -8.23 -4.73 2.4
v -8.23 -4.27 2.4
v -8.23 -4.27 0
vt 0.657470703125 0.921142578125
vt 0.7275390625 0.921142578125
vt 0.7275390625 0.9345703125
vt 0.657470703125 0.9345703125
f 799/799 800/800 801/801 802/802
v -8.23 -4.27 2.4
v -7.77 -4.27 2.4
v -7.77 -4.27 0
v -8.23 -4.27 0
vt 0.903076171875 0.64111328125
vt 0.91650390625 0.64111328125
vt 0.91650390625 0.711181640625
vt 0.903076171875 0.711181640625
f 803/803 804/804 805/805 806/806
v -8.23 -4.73 0
v -7.77 -4.73 0
v -7.77 -4.73 2.4
v -8.23 -4.73 2.4
vt 0.9169921875 0.64111328125
vt 0.930419921875 0.64111328125
vt 0.930419921875 0.711181640625
vt 0.9169921875 0.711181640625
f 807/807 808/808 809/809 810/810
usemtl glyph_3f7d3a
v -9.7 -6.2 2
v -6.3 -6.2 2
v -8 -4.5 5.5
vt 0.799072265625 0.52685546875
vt 0.8984375 0.52685546875
vt 0.799072265625 0.640625
f 811/811 812/812 813/813
v -6.3 -6.2 2
v -6.3 -2.8 2
v -8 -4.5 5.5
vt 0.89892578125 0.52685546875
vt 0.998291015625 0.52685546875
vt 0.89892578125 0.640625
f 814/814 815/815 816/816
v -6.3 -2.8 2
v -9.7 -2.8 2
v -8 -4.5 5.5
vt 0.000244140625 0.64111328125
vt 0.099609375 0.64111328125
vt 0.000244140625 0.7548828125
f 817/817 818/818 819/819
v -9.7 -2.8 2
v -9.7 -6.2 2
v -8 -4.5 5.5
vt 0.10009765625 0.64111328125
vt 0.199462890625 0.64111328125
vt 0.10009765625 0.7548828125
f 820/820 821/821 822/822
