# 3ds Max Wavefront OBJ Exporter v0.97b - (c)2007 guruware
# File Created: 17.10.2018 12:58:28

mtllib Sledgehammer.mtl

#
# object Sledgehammer
#

v  0.220369 3.562167 -0.546273
v  -0.220280 3.561930 0.563258
v  -0.220280 3.562167 -0.546273
v  0.220369 3.561930 0.563258
v  0.220369 3.994006 -0.546179
v  0.220369 3.993772 0.563348
v  -0.220280 3.994006 -0.546179
v  -0.220280 3.993772 0.563348
v  0.100911 4.107434 0.083106
v  0.100874 -0.598007 0.087815
v  0.100923 -0.598173 -0.069804
v  0.043737 -0.597958 0.122638
v  0.043737 4.107326 0.117258
v  -0.039581 -0.597958 0.122638
v  -0.039581 4.107326 0.117258
v  -0.093295 -0.598007 0.087815
v  -0.093332 4.107434 0.083106
v  -0.093332 -0.598123 -0.069804
v  -0.093295 4.107309 -0.077692
v  -0.039581 -0.598030 -0.101999
v  -0.039581 4.107254 -0.107379
v  0.043737 -0.598030 -0.101999
v  0.043737 4.107254 -0.107379
v  0.100874 4.107309 -0.077692
# 24 vertices

vn 0.000000 -1.000000 -0.000213
vn 1.000000 0.000000 -0.000000
vn 0.000000 1.000000 0.000211
vn -1.000000 0.000000 -0.000000
vn 0.000000 0.000217 -1.000000
vn 0.000000 -0.000210 1.000000
vn 1.000000 0.000010 -0.000217
vn 1.000000 -0.000007 0.000310
vn 1.000000 -0.000007 0.000298
vn 0.512891 0.000980 0.858453
vn 0.270246 0.001036 0.962791
vn 0.520428 0.000851 0.853905
vn 0.266181 0.001102 0.963923
vn -0.283658 0.001096 0.958925
vn -0.279500 0.001033 0.960145
vn -0.543925 0.000958 0.839133
vn -0.536292 0.000841 0.844032
vn -1.000000 0.000007 -0.000218
vn -1.000000 -0.000007 0.000222
vn -1.000000 -0.000008 0.000232
vn -1.000000 0.000007 -0.000228
vn -0.483984 -0.001004 -0.875076
vn -0.266602 -0.001335 -0.963806
vn -0.513841 -0.001434 -0.857884
vn -0.249808 -0.001107 -0.968295
vn 0.253802 -0.001106 -0.967256
vn 0.237478 -0.001349 -0.971392
vn 0.490329 -0.001001 -0.871537
vn 0.461059 -0.001483 -0.887368
vn 1.000000 0.000010 -0.000228
vn 0.000409 1.000000 -0.000457
vn 0.000593 1.000000 -0.000778
vn 0.002009 0.999998 -0.000378
vn 0.000865 1.000000 -0.000319
vn -0.000396 1.000000 -0.000457
vn -0.001874 0.999998 -0.000383
vn -0.000557 1.000000 -0.000778
vn -0.000827 1.000000 -0.000319
vn 0.000327 -1.000000 0.000437
vn 0.000440 -1.000000 0.000734
vn 0.001727 -0.999998 0.000374
vn 0.000760 -1.000000 0.000321
vn -0.001081 -0.999999 0.000321
vn -0.000361 -1.000000 0.000528
vn -0.002344 -0.999997 0.000422
vn -0.000218 -0.999999 0.001054
# 46 vertex normals

vt 0.769828 0.491583 0.000000
vt 0.991988 0.009160 0.000000
vt 0.991990 0.491582 0.000000
vt 0.769827 0.009161 0.000000
vt 0.774094 0.012044 0.000000
vt 0.993387 0.570821 0.000000
vt 0.991814 0.011432 0.000000
vt 0.775665 0.571432 0.000000
vt 0.769829 0.546122 0.000000
vt 0.991988 0.063701 0.000000
vt 0.991990 0.546122 0.000000
vt 0.769827 0.063702 0.000000
vt 0.992299 0.012645 0.000000
vt 0.773735 0.571707 0.000000
vt 0.774577 0.012317 0.000000
vt 0.991458 0.572035 0.000000
vt 0.792969 0.292969 0.000000
vt 0.980469 0.292969 0.000000
vt 0.980469 0.070313 0.000000
vt 0.792969 0.070313 0.000000
vt 0.978162 0.157824 0.000000
vt 0.978163 0.379986 0.000000
vt 0.790397 0.379987 0.000000
vt 0.790396 0.157825 0.000000
vt 0.606681 1.000621 0.000000
vt 0.615342 0.000745 0.000000
vt 0.754803 0.000832 0.000000
vt 0.544391 0.000729 0.000000
vt 0.539868 1.000572 0.000000
vt 0.438867 0.000729 0.000000
vt 0.443642 1.000572 0.000000
vt 0.371710 0.000745 0.000000
vt 0.380370 1.000621 0.000000
vt 0.232255 0.000842 0.000000
vt 0.238512 1.000717 0.000000
vt 0.170282 0.000887 0.000000
vt 0.175057 1.000729 0.000000
vt 0.074056 0.000887 0.000000
vt 0.069534 1.000729 0.000000
vt 0.008535 0.000832 0.000000
vt 0.002284 1.000717 0.000000
vt 0.748553 1.000717 0.000000
vt 0.777863 0.712450 0.000000
vt 0.805381 0.615618 0.000000
vt 0.944151 0.615553 0.000000
vt 0.975809 0.712451 0.000000
vt 0.777862 0.862651 0.000000
vt 0.944150 0.965720 0.000000
vt 0.805380 0.965653 0.000000
vt 0.975808 0.862652 0.000000
vt 0.975218 0.712451 0.000000
vt 0.942942 0.615619 0.000000
vt 0.807113 0.615552 0.000000
vt 0.777273 0.712450 0.000000
vt 0.777272 0.862651 0.000000
vt 0.975218 0.862652 0.000000
vt 0.807112 0.965741 0.000000
vt 0.942941 0.965654 0.000000
# 58 texture coords

g Sledgehammer
usemtl sledgehammer_mat
s 1
f 1/1/1 2/2/1 3/3/1
f 1/1/1 4/4/1 2/2/1
s 2
f 5/5/2 4/6/2 1/7/2
f 5/5/2 6/8/2 4/6/2
s 1
f 7/9/3 6/10/3 5/11/3
f 7/9/3 8/12/3 6/10/3
s 2
f 3/13/4 8/14/4 7/15/4
f 3/13/4 2/16/4 8/14/4
s 4
f 5/17/5 1/18/5 3/19/5
f 3/19/5 7/20/5 5/17/5
f 6/21/6 8/22/6 2/23/6 4/24/6
s 1
f 9/25/7 10/26/8 11/27/9
s 2
f 9/25/10 12/28/11 10/26/12
f 12/28/11 9/25/10 13/29/13
f 13/29/13 14/30/14 12/28/11
f 14/30/14 13/29/13 15/31/15
f 15/31/15 16/32/16 14/30/14
f 16/32/16 15/31/15 17/33/17
s 1
f 17/33/18 18/34/19 16/32/20
f 18/34/19 17/33/18 19/35/21
s 2
f 19/35/22 20/36/23 18/34/24
f 20/36/23 19/35/22 21/37/25
f 21/37/25 22/38/26 20/36/23
f 22/38/26 21/37/25 23/39/27
f 23/39/27 11/40/28 22/38/26
f 11/40/28 23/39/27 24/41/29
s 1
f 11/27/9 24/42/30 9/25/7
s 4
f 21/43/31 19/44/32 17/45/33
f 15/46/34 21/43/31 17/45/33
f 23/47/35 9/48/36 24/49/37
f 13/50/38 9/48/36 23/47/35
f 21/43/31 15/46/34 13/50/38
f 13/50/38 23/47/35 21/43/31
f 14/51/39 16/52/40 18/53/41
f 20/54/42 14/51/39 18/53/41
f 14/51/39 20/54/42 22/55/43
f 22/55/43 12/56/44 14/51/39
f 12/56/44 11/57/45 10/58/46
f 22/55/43 11/57/45 12/56/44
# 1 polygons - 38 triangles
