# Exported from Wings 3D 1.4.1
mtllib computer01.mtl
o cube1
#40 vertices, 34 faces
v -0.19822222 0.39207632 0.15767467
v -0.19822222 1.50444826 0.36444137
v 0.19822222 1.50444826 0.36444137
v 0.19822222 0.39207632 0.15767467
v -0.19822222 0.39207632 -0.18899200
v -0.19822222 1.50444826 1.7774699e-2
v 0.19822222 1.50444826 1.7774699e-2
v 0.19822222 0.39207632 -0.18899200
v 1.55740935 1.47449615 1.3018167e-2
v 1.55740935 3.47449615 1.3018167e-2
v -1.55740935 3.47449615 1.3018167e-2
v -1.55740935 1.47449615 1.3018167e-2
v 1.55740935 1.47449615 0.36750690
v 1.55740935 3.47449615 0.36750690
v -1.55740935 3.47449615 0.36750690
v -1.55740935 1.47449615 0.36750690
v 1.44619783 1.58570767 0.30624756
v 1.44619783 3.36328463 0.30624756
v -1.44619783 3.36328463 0.30624756
v -1.44619783 1.58570767 0.30624756
v 1.44619783 1.58570767 0.36750690
v 1.44619783 3.36328463 0.36750690
v -1.44619783 3.36328463 0.36750690
v -1.44619783 1.58570767 0.36750690
v -1.38455753 0.0000000e+0 0.33320032
v -1.38455753 0.39286573 0.33320032
v 1.38455753 0.39286573 0.33320032
v 1.38455753 0.0000000e+0 0.33320032
v -1.38455753 0.0000000e+0 -0.29777778
v -1.38455753 0.39286573 -0.29777778
v 1.38455753 0.39286573 -0.29777778
v 1.38455753 0.0000000e+0 -0.29777778
v -1.14392264 0.39286573 0.52929547
v -1.14392264 0.0000000e+0 0.52929547
v 1.14392264 0.0000000e+0 0.52929547
v 1.14392264 0.39286573 0.52929547
v -1.23544012 0.0000000e+0 -0.50201224
v -1.23544012 0.39286573 -0.50201224
v 1.23544012 0.39286573 -0.50201224
v 1.23544012 0.0000000e+0 -0.50201224
vt 0.0000000e+0 8.3266727e-17
vt 0.0000000e+0 0.40015555
vt 0.0000000e+0 0.41905643
vt 0.0000000e+0 0.41905643
vt 0.0000000e+0 0.47930332
vt 0.0000000e+0 0.49820420
vt 0.0000000e+0 0.50861549
vt 0.0000000e+0 0.50861549
vt 0.0000000e+0 0.81072238
vt 0.0000000e+0 0.82113367
vt 0.0000000e+0 0.82113367
vt 0.0000000e+0 0.92837113
vt 0.0000000e+0 0.92837113
vt 0.0000000e+0 0.99640888
vt 2.7755576e-17 0.81072238
vt 5.5511151e-17 0.47930332
vt 1.1102230e-16 0.33990865
vt 1.6653345e-16 0.33990865
vt 1.8900879e-2 0.49820420
vt 1.8900879e-2 0.40015555
vt 2.5343149e-2 0.96308166
vt 4.0896941e-2 0.96308166
vt 0.42972614 0.96308166
vt 0.44527993 0.96308166
vt 0.47062308 0.82113367
vt 0.47062308 0.92837113
vt 0.47062308 0.82113367
vt 0.47062308 0.88790290
vt 0.47062308 0.92837113
vt 0.47062308 0.99640888
vt 0.49157516 0.81072238
vt 0.49157516 0.82113367
vt 0.49157516 0.50861549
vt 0.49157516 0.81072238
vt 0.49157516 0.49820420
vt 0.49157516 0.50861549
vt 0.51047604 0.49820420
vt 0.51047604 0.40015555
vt 0.52337973 0.82113367
vt 0.52337973 0.88790290
vt 0.52937692 0.41905643
vt 0.52937692 0.47930332
vt 0.52937692 0.47930332
vt 0.52937692 0.0000000e+0
vt 0.52937692 0.10723746
vt 0.52937692 0.10723746
vt 0.52937692 0.17527521
vt 0.52937692 0.17527521
vt 0.52937692 0.24204444
vt 0.52937692 0.40015555
vt 0.52937692 0.98863097
vt 0.52937692 0.24204444
vt 0.52937692 0.30881367
vt 0.52937692 0.30881367
vt 0.52937692 0.33990865
vt 0.52937692 0.33990865
vt 0.52937692 0.41905643
vt 0.52937692 0.64872232
vt 0.52937692 0.64872232
vt 0.55472007 0.14194799
vt 0.57027386 0.14194799
vt 0.58962381 0.98863097
vt 0.58962381 0.30881367
vt 0.58962381 0.64872232
vt 0.58962381 0.64872232
vt 0.58962381 0.84101299
vt 0.58962381 0.90778222
vt 0.58962381 0.64872232
vt 0.58962381 0.84101299
vt 0.65700126 0.64872232
vt 0.65700126 0.84101299
vt 0.65700126 0.64872232
vt 0.65700126 0.84101299
vt 0.69686127 0.90778222
vt 0.69686127 0.97455145
vt 0.69686127 0.84101299
vt 0.69686127 0.90778222
vt 0.72437871 0.64872232
vt 0.72437871 0.84101299
vt 0.72437871 0.64872232
vt 0.74961791 0.90778222
vt 0.74961791 0.97455145
vt 0.75951960 0.83777474
vt 0.78329621 0.64872232
vt 0.80409872 0.84101299
vt 0.80409872 0.89993049
vt 0.80409872 0.89993049
vt 0.80409872 0.95884799
vt 0.80409872 0.84101299
vt 0.80409872 0.90778222
vt 0.81843710 0.83777474
vt 0.85357800 0.64872232
vt 0.87147617 0.84101299
vt 0.87147617 0.89993049
vt 0.87147617 0.89993049
vt 0.87147617 0.95884799
vt 0.87735460 0.83777474
vt 0.91249550 0.64872232
vt 0.91820612 0.24204444
vt 0.91820612 0.30881367
vt 0.94931370 0.85509251
vt 0.94931370 0.98863097
vt 0.94931370 0.17527521
vt 0.94931370 0.19417609
vt 0.94931370 0.24204444
vt 0.94931370 0.49628298
vt 0.94931370 0.51518386
vt 0.94931370 0.85509251
vt 0.94931370 0.92186174
vt 0.95910306 0.14194799
vt 0.96821458 0.51518386
vt 0.96821458 0.17527521
vt 0.96821458 0.51518386
vt 0.96821458 0.53408474
vt 0.96821458 0.83619163
vt 0.96821458 0.81729076
vt 0.97465685 0.14194799
vt 0.97862587 0.51518386
vt 0.97862587 0.81729076
vt 0.97862587 0.81729076
vt 0.97862587 0.51518386
vt 0.98903716 0.81729076
vt 0.98903716 0.51518386
vt 0.99229156 0.85509251
vt 0.99229156 0.92186174
vt 0.99229156 0.98863097
vt 0.99229156 0.92186174
vt 1.00000000 1.4571677e-16
vt 1.00000000 0.10723746
vt 1.00000000 0.10723746
vt 1.00000000 0.17527521
vn -0.54509896 -0.64471516 0.53591929
vn -0.61609929 0.50350786 0.60572395
vn 0.61609929 0.50350786 0.60572395
vn 0.54509896 -0.64471516 0.53591929
vn -0.61609929 -0.50350786 -0.60572395
vn -0.54509896 0.64471516 -0.53591929
vn 0.54509896 0.64471516 -0.53591929
vn 0.61609929 -0.50350786 -0.60572395
vn 0.57735027 -0.57735027 -0.57735027
vn 0.57735027 0.57735027 -0.57735027
vn -0.57735027 0.57735027 -0.57735027
vn -0.57735027 -0.57735027 -0.57735027
vn 0.40824829 -0.40824829 0.81649658
vn 0.40824829 0.40824829 0.81649658
vn -0.40824829 0.40824829 0.81649658
vn -0.40824829 -0.40824829 0.81649658
vn -0.57735027 0.57735027 0.57735027
vn -0.57735027 -0.57735027 0.57735027
vn 0.57735027 -0.57735027 0.57735027
vn 0.57735027 0.57735027 0.57735027
vn -0.40824829 0.40824829 0.81649658
vn -0.40824829 -0.40824829 0.81649658
vn 0.40824829 -0.40824829 0.81649658
vn 0.40824829 0.40824829 0.81649658
vn -0.60544354 -0.74209423 0.28763566
vn -0.60544354 0.74209423 0.28763566
vn 0.60544354 0.74209423 0.28763566
vn 0.60544354 -0.74209423 0.28763566
vn -0.65504111 -0.72474829 -0.21368451
vn -0.65504111 0.72474829 -0.21368451
vn 0.65504111 0.72474829 -0.21368451
vn 0.65504111 -0.72474829 -0.21368451
vn -0.29614006 0.46878664 0.83218997
vn -0.29614006 -0.46878664 0.83218997
vn 0.29614006 -0.46878664 0.83218997
vn 0.29614006 0.46878664 0.83218997
vn -0.39505875 -0.48915353 -0.77759720
vn -0.39505875 0.48915353 -0.77759720
vn 0.39505875 0.48915353 -0.77759720
vn 0.39505875 -0.48915353 -0.77759720
g cube1_cube1_auv
usemtl cube1_auv
s 1
f 1/68/1 4/72/4 3/73/3 2/69/2
f 1/93/1 5/95/5 8/87/8 4/85/4
f 2/91/2 6/83/6 5/80/5 1/84/1
f 3/94/3 7/96/7 6/88/6 2/86/2
f 4/92/4 8/98/8 7/97/7 3/91/3
f 6/79/6 7/71/7 8/70/8 5/78/5
f 9/1/9 12/44/12 11/55/11 10/17/10
f 9/16/9 13/4/13 16/41/16 12/42/12
f 10/64/10 14/58/14 13/54/13 9/63/9
f 11/2/11 15/18/15 14/56/14 10/50/10
f 12/59/12 16/65/16 15/62/15 11/51/11
f 13/43/13 21/37/21 24/19/24 16/5/16
f 14/113/14 22/106/22 21/104/21 13/112/13
f 15/3/15 23/20/23 22/38/22 14/57/14
f 16/107/16 24/114/24 23/115/23 15/108/15
f 17/121/17 21/123/21 22/122/22 18/120/18
f 18/34/18 19/15/19 20/8/20 17/33/17
f 18/7/18 22/6/22 23/35/23 19/36/19
f 19/119/19 23/116/23 24/111/24 20/118/20
f 20/10/20 24/9/24 21/31/21 17/32/17
f 25/128/25 29/129/29 32/45/32 28/44/28
f 25/74/25 34/81/34 33/82/33 26/75/26
f 26/90/26 30/77/30 29/76/29 25/89/25
f 26/14/26 33/22/33 36/23/36 27/30/27
f 27/27/27 31/26/31 30/12/30 26/11/26
f 27/40/27 36/28/36 35/25/35 28/39/28
f 28/66/28 32/76/32 31/77/31 27/67/27
f 28/47/28 35/61/35 34/110/34 25/131/25
f 29/29/29 37/24/37 40/21/40 32/13/32
f 30/127/30 38/109/38 37/101/37 29/124/29
f 31/130/31 39/117/39 38/60/38 30/46/30
f 32/109/32 40/125/40 39/126/39 31/102/31
f 34/52/34 35/99/35 36/100/36 33/53/33
f 38/105/38 39/49/39 40/48/40 37/103/37
