mtllib palm_fan.mtl
# Blender v2.78 (sub 4) OBJ File: ''
# www.blender.org
o palm_fan
v -0.170109 0.393386 0.056267
v -0.049284 0.370631 -0.226906
v -0.098221 0.000000 -0.098221
v -0.098221 -0.000000 0.098221
v 0.267397 0.387196 -0.056248
v 0.098221 0.000000 -0.098221
v 0.104757 0.422597 0.216424
v 0.098221 -0.000000 0.098221
v -0.044410 0.594629 0.042559
v 0.085583 0.596329 0.038013
v 0.020587 0.617059 -0.037657
v 0.089081 0.578865 -0.112509
v -0.049501 0.550434 -0.106335
v 0.005768 1.796187 0.177475
v -0.624163 1.506357 0.094192
v -0.240851 1.301472 -0.169879
v 0.055091 1.420081 0.014835
v -0.167781 2.222005 0.795994
v -1.185851 1.672017 0.712711
v -0.012494 1.024460 -0.138582
v 0.070771 1.062371 -0.097438
v 0.344376 1.267218 0.094087
v 0.084098 1.483485 -0.007537
v 0.067817 1.155780 -0.208479
v 0.169275 1.091710 -0.132662
v 0.618173 1.383953 0.453444
v 0.061455 1.707029 0.367918
v 0.045098 0.952152 -0.201998
v 0.098056 0.940071 -0.173066
v -0.080353 0.955247 0.125942
v 0.141458 1.064670 0.027082
v -0.124018 0.927517 -0.306239
v 0.129686 0.970099 -0.256889
vt 0.998283 0.202592
vt 0.901361 0.003534
vt 0.991738 0.003534
vt 0.815267 0.553148
vt 0.728605 0.358085
vt 0.822959 0.358085
vt 0.842019 0.204711
vt 0.758883 0.001430
vt 0.849663 0.001430
vt 1.002442 0.555495
vt 0.858448 0.354950
vt 0.950411 0.354950
vt 0.937500 0.929688
vt 1.000000 0.929688
vt 0.968750 0.960938
vt 0.905813 0.653326
vt 0.966861 0.669268
vt 0.747074 0.310266
vt 0.817242 0.332202
vt 0.726781 0.645540
vt 0.795383 0.648873
vt 0.909861 0.279784
vt 0.980402 0.306339
vt 0.183768 0.611327
vt 0.482578 0.411604
vt 0.534662 0.612323
vt 0.580767 0.996803
vt 0.299583 0.383560
vt 0.429570 0.230675
vt 0.380037 0.221358
vt 0.376305 0.009857
vt 0.027374 0.187345
vt 0.148182 0.324077
vt 0.178212 0.179687
vt -0.001490 0.002554
vt 0.276046 0.001820
vt 0.130173 0.410029
vt 0.155301 0.402893
vt 0.580622 0.243669
vt 0.647066 0.440540
vt 0.515308 0.476688
vt 0.937500 1.000000
vt 1.000000 1.000000
vt 0.612203 0.050855
vt 0.441289 0.234279
vt 0.664555 0.234279
vt 0.855743 0.785488
vt 0.928352 0.998682
vt 0.928352 0.783560
vt 0.698799 0.767817
vt 0.780786 0.998964
vt 0.774817 0.784127
vt 0.204517 0.549646
vt 0.848561 0.204668
vt 0.640616 0.553148
vt 0.687070 0.205027
vt 0.847493 0.555915
vt -0.002119 0.996803
vt 0.089256 0.337194
vt 0.647066 0.249791
vt 0.534613 0.032592
vt 0.794745 0.998682
vt 0.627141 0.998964
vn -0.9337 0.1931 0.3015
vn -0.7219 -0.2686 -0.6377
vn -0.7064 -0.2233 0.6716
vn -0.3187 0.1037 -0.9422
vn 0.6265 -0.3849 -0.6778
vn 0.9646 0.1235 -0.2328
vn 0.6242 -0.3715 0.6873
vn 0.2773 0.2397 0.9304
vn -0.2381 0.9638 -0.1200
vn -0.1570 0.9840 0.0845
vn -0.1177 0.9868 -0.1116
vn -0.1233 0.9892 -0.0795
vn -0.0515 0.9967 -0.0627
vn -0.1839 0.9646 -0.1893
vn -0.2954 0.9236 -0.2445
vn 0.2223 -0.7231 0.6540
vn -0.1416 -0.4871 0.8618
vn 0.1861 -0.6228 0.7600
vn 0.3215 -0.7595 0.5655
vn -0.2038 -0.6304 0.7491
vn -0.4389 -0.0946 0.8935
vn -0.4370 -0.0163 0.8993
vn -0.6680 -0.5415 0.5104
vn -0.6192 -0.1799 0.7643
vn -0.5785 -0.5590 0.5940
vn -0.5726 -0.6660 0.4781
vn -0.4744 -0.6646 0.5773
vn -0.4577 0.2070 0.8647
vn -0.4314 0.2102 0.8774
vn -0.0964 0.9884 0.1170
vn 0.3221 0.1407 -0.9362
vn -0.8721 0.0928 -0.4805
vn -0.1831 0.8858 -0.4264
vn -0.0608 0.9897 -0.1298
vn -0.2029 0.9763 -0.0754
vn 0.5128 0.4341 0.7407
vn -0.0180 0.9876 -0.1558
vn -0.1957 0.8719 -0.4489
vn -0.7958 0.2872 0.5332
vn -0.1177 0.9867 -0.1116
vn 0.3667 -0.7600 0.5366
vn -0.6575 -0.1737 0.7331
usemtl palm_fan
s 1
f 1/1/1 3/2/2 4/3/3
f 2/4/4 6/5/5 3/6/2
f 5/7/6 8/8/7 6/9/5
f 7/10/8 4/11/3 8/12/7
f 9/13/9 10/14/10 11/15/11
f 9/16/12 7/10/8 10/17/13
f 10/18/13 5/7/6 12/19/14
f 12/20/14 2/4/4 13/21/15
f 13/22/15 1/1/1 9/23/12
f 15/24/16 17/25/17 14/26/18
f 18/27/19 15/24/16 14/26/18
f 16/28/20 21/29/21 17/25/17
f 21/29/21 20/30/22 11/31/11
f 23/32/23 25/33/24 22/34/25
f 27/35/26 22/34/25 26/36/27
f 25/33/24 28/37/28 29/38/29
f 10/39/30 30/40/31 31/41/32
f 13/42/33 9/13/9 11/15/11
f 12/43/34 13/42/33 11/15/11
f 10/14/10 12/43/34 11/15/11
f 9/44/35 32/45/36 30/46/31
f 12/47/37 32/48/36 13/49/38
f 10/50/30 33/51/39 12/52/37
f 29/38/29 28/37/28 11/53/40
f 1/1/1 2/54/4 3/2/2
f 2/4/4 5/55/6 6/5/5
f 5/7/6 7/56/8 8/8/7
f 7/10/8 1/57/1 4/11/3
f 9/16/12 1/57/1 7/10/8
f 10/18/13 7/56/8 5/7/6
f 12/20/14 5/55/6 2/4/4
f 13/22/15 2/54/4 1/1/1
f 15/24/16 16/28/20 17/25/17
f 18/27/19 19/58/41 15/24/16
f 16/28/20 20/30/22 21/29/21
f 23/32/23 24/59/42 25/33/24
f 27/35/26 23/32/23 22/34/25
f 25/33/24 24/59/42 28/37/28
f 10/39/30 9/60/35 30/40/31
f 9/44/35 13/61/38 32/45/36
f 12/47/37 33/62/39 32/48/36
f 10/50/30 31/63/32 33/51/39
